<?xml version="1.0" encoding="UTF-8"?> <svg xmlns="http://www.w3.org/2000/svg" width="138" height="193" viewBox="0 0 138 193" fill="none"><g clip-path="url(#clip0_852_3149)"><path d="M68.7452 12.0339C31.3642 12.0339 4.00122 21.8165 4.00122 28.9937V95.233H134.126L133.489 28.9937C133.489 21.8165 106.126 12.0339 68.7452 12.0339Z" fill="#1B3139"></path><path d="M2.24365 103.013V149.978C2.24365 150.876 2.69237 151.624 3.44023 152.073L69.1023 190.064V103.013H2.24365Z" fill="#1F5262"></path><path d="M58.0337 165.847C58.0337 160.014 62.82 155.227 68.6533 155.227V176.616C62.82 176.616 58.0337 171.83 58.0337 165.847Z" fill="#F16955"></path><path d="M46.5166 166.894C46.5166 154.629 56.3884 144.757 68.6533 144.757C68.6533 143.86 68.6533 143.261 68.6533 143.261V117.834H57.2858V126.061C54.5935 126.809 52.2003 127.856 49.6576 129.202L43.8243 123.368L27.9697 139.373L33.803 145.206C32.4569 147.599 31.4099 150.142 30.662 152.684H22.4355V162.257L49.6576 177.962C47.7132 174.672 46.5166 170.932 46.5166 166.894Z" fill="#628794"></path><path d="M68.8032 190.064L134.316 152.073C135.064 151.624 135.512 150.876 135.512 149.978V103.013H68.8032V190.064Z" fill="#010101"></path><g clip-path="url(#clip1_852_3149)"><path d="M111.856 123.413C110.51 121.768 109.015 120.272 107.07 119.374C105.275 118.477 103.181 117.879 101.087 117.879C98.9933 117.879 97.0488 118.327 95.1044 119.374C93.3096 120.272 91.6643 121.618 90.3181 123.413H111.856Z" fill="#1F5262"></path><path d="M68.7798 123.413C70.1259 125.207 71.7712 126.554 73.5661 127.601C75.5105 128.648 77.455 129.096 79.549 129.096C81.643 129.096 83.737 128.648 85.5318 127.601C87.4763 126.554 89.1216 125.207 90.3181 123.413H68.7798V123.413Z" fill="#1F5262"></path><path d="M111.857 123.413C113.203 125.207 114.848 126.554 116.643 127.601C118.587 128.648 120.532 129.096 122.626 129.096C124.72 129.096 126.814 128.648 128.609 127.601C130.553 126.554 132.198 125.207 133.395 123.413H111.857V123.413Z" fill="#1F5262"></path><path d="M111.856 134.182C110.51 132.387 109.015 131.041 107.07 130.143C105.126 129.246 103.181 128.648 101.087 128.648C98.9933 128.648 97.0488 129.096 95.1044 130.143C93.3096 131.041 91.6643 132.537 90.3181 134.182H111.856Z" fill="#628794"></path><path d="M68.7798 134.182C70.1259 135.827 71.7712 137.173 73.5661 138.071C75.5105 138.968 77.455 139.417 79.549 139.417C81.643 139.417 83.737 138.968 85.5318 138.071C87.4763 137.173 89.1216 135.827 90.3181 134.182H68.7798Z" fill="#628794"></path><path d="M111.857 134.182C113.203 135.827 114.848 137.173 116.643 138.071C118.587 138.968 120.532 139.417 122.626 139.417C124.72 139.417 126.814 138.968 128.609 138.071C130.553 137.173 132.198 135.827 133.395 134.182H111.857Z" fill="#628794"></path><path d="M111.856 144.801C110.51 143.156 109.015 141.66 107.07 140.763C105.275 139.865 103.181 139.267 101.087 139.267C98.9933 139.267 97.0488 139.716 95.1044 140.763C93.3096 141.66 91.6643 143.006 90.3181 144.801H111.856Z" fill="#1F5262"></path><path d="M68.7798 144.802C70.1259 146.596 71.7712 147.943 73.5661 148.99C75.3609 150.037 77.455 150.485 79.549 150.485C81.643 150.485 83.737 150.037 85.5318 148.99C87.4763 147.943 89.1216 146.596 90.3181 144.802H68.7798Z" fill="#1F5262"></path><path d="M111.857 144.802C113.203 146.596 114.848 147.943 116.643 148.99C118.587 150.037 120.532 150.485 122.626 150.485C124.72 150.485 126.814 150.037 128.609 148.99C130.553 147.943 132.198 146.596 133.395 144.802H111.857Z" fill="#1F5262"></path><path d="M111.856 155.571C110.51 153.776 109.015 152.43 107.07 151.532C105.126 150.635 103.181 150.036 101.087 150.036C98.9933 150.036 97.0488 150.485 95.1044 151.532C93.3096 152.43 91.6643 153.925 90.3181 155.571H111.856Z" fill="#628794"></path><path d="M68.7798 155.571C70.1259 157.216 71.7712 158.562 73.5661 159.459C75.5105 160.357 77.455 160.806 79.549 160.806C81.643 160.806 83.737 160.357 85.5318 159.459C87.4763 158.562 89.1216 157.216 90.3181 155.571H68.7798Z" fill="#628794"></path><path d="M111.857 155.571C113.203 157.216 114.848 158.562 116.643 159.459C116.942 159.609 117.241 159.759 117.54 159.908L124.869 155.571H111.857V155.571Z" fill="#628794"></path><path d="M110.211 164.395C109.314 163.498 108.267 162.75 107.07 162.152C105.275 161.254 103.181 160.656 101.087 160.656C98.9933 160.656 97.0488 161.105 95.1044 162.152C93.3096 163.049 91.6643 164.395 90.3181 166.19H106.921L110.211 164.395Z" fill="#1F5262"></path><path d="M68.7798 166.19C70.1259 167.985 71.7712 169.331 73.5661 170.378C75.5105 171.425 77.455 171.874 79.549 171.874C81.643 171.874 83.737 171.425 85.5318 170.378C87.4763 169.331 89.1216 167.985 90.3181 166.19H68.7798Z" fill="#1F5262"></path><path d="M68.7798 176.959C70.1259 178.605 71.7712 179.951 73.5661 180.848C75.3609 181.746 77.455 182.194 79.549 182.194C79.8481 182.194 79.9977 182.194 80.2968 182.194L89.1216 176.959H68.7798Z" fill="#628794"></path></g><mask id="mask0_852_3149" style="mask-type:alpha" maskUnits="userSpaceOnUse" x="4" y="38" width="130" height="54"><path d="M4.35962 42.9518C4.35962 40.2767 6.52819 38.1082 9.20327 38.1082H128.841C131.516 38.1082 133.685 40.2767 133.685 42.9518V91.8726H4.35962V42.9518Z" fill="white"></path></mask><g mask="url(#mask0_852_3149)"><rect x="3.39087" y="33.7488" width="131.747" height="59.5769" fill="#F16955"></rect><path d="M133.685 39.0769L3.19727 92.357H133.685V39.0769Z" fill="#FF5F46"></path></g><path d="M60.4282 50.4416L59.3812 52.5357C59.3812 52.6852 59.2316 52.8348 59.0821 52.8348L56.6889 53.1339C56.2402 53.1339 56.0906 53.5827 56.3898 53.8818L58.0351 55.5271C58.1846 55.6767 58.1846 55.8262 58.1846 55.9758L57.7359 58.3689C57.7359 58.8177 58.0351 58.9672 58.3342 58.8177L60.4282 57.7707C60.5778 57.7707 60.7273 57.7707 60.8769 57.7707L62.9709 58.8177C63.2701 58.9672 63.7188 58.6681 63.5692 58.3689L63.4196 55.9758C63.4196 55.8262 63.4196 55.6767 63.5692 55.5271L65.2145 53.8818C65.5136 53.5827 65.3641 53.1339 64.9154 53.1339L62.5222 52.8348C62.3726 52.8348 62.2231 52.6852 62.2231 52.5357L61.1761 50.4416C61.1761 50.1425 60.7273 50.1425 60.4282 50.4416Z" fill="#1B313A"></path><path d="M75.3767 50.4416L74.3297 52.5357C74.3297 52.6852 74.1801 52.8348 74.0305 52.8348L71.6374 53.1339C71.1887 53.1339 71.0391 53.5827 71.3382 53.8818L72.9835 55.5271C73.1331 55.6767 73.1331 55.8262 73.1331 55.9758L72.6844 58.3689C72.6844 58.8177 72.9835 58.9672 73.2827 58.8177L75.3767 57.7707C75.5263 57.7707 75.6758 57.7707 75.8254 57.7707L77.9194 58.8177C78.2186 58.9672 78.6673 58.6681 78.5177 58.3689L78.3681 55.9758C78.3681 55.8262 78.3681 55.6767 78.5177 55.5271L80.163 53.8818C80.4621 53.5827 80.3126 53.1339 79.8638 53.1339L77.4707 52.8348C77.3211 52.8348 77.1716 52.6852 77.1716 52.5357L76.1245 50.4416C75.975 50.1425 75.5263 50.1425 75.3767 50.4416Z" fill="#1B313A"></path><path d="M134.908 91.8435H2.71875V117.991H134.908V91.8435Z" fill="#1B3139"></path><path d="M31.368 102.749V95.9677H32.9954C34.0869 95.9677 34.8974 96.2712 35.4269 96.8783C35.9565 97.4789 36.2213 98.3055 36.2213 99.3582C36.2213 100.411 35.9565 101.241 35.4269 101.848C34.8974 102.448 34.0869 102.749 32.9954 102.749H31.368ZM32.3948 101.799H32.9567C33.7446 101.799 34.3129 101.58 34.6616 101.141C35.0104 100.695 35.1847 100.101 35.1847 99.3582C35.1847 98.6155 35.0104 98.0246 34.6616 97.5855C34.3129 97.1398 33.7446 96.917 32.9567 96.917H32.3948V101.799ZM39.0946 102.865C38.7136 102.865 38.3939 102.8 38.1356 102.671C37.8773 102.536 37.6835 102.358 37.5544 102.138C37.4252 101.912 37.3606 101.667 37.3606 101.402C37.3606 100.931 37.5317 100.563 37.874 100.298C38.2228 100.033 38.7136 99.9007 39.3465 99.9007H40.5865V99.7942C40.5865 99.0708 40.2506 98.7092 39.579 98.7092C39.3013 98.7092 39.0656 98.7705 38.8718 98.8932C38.6845 99.0095 38.5586 99.2 38.494 99.4648H37.4672C37.5188 98.961 37.7352 98.5639 38.1162 98.2732C38.5037 97.9762 38.9913 97.8276 39.579 97.8276C40.2894 97.8276 40.8061 98.002 41.129 98.3507C41.4519 98.6995 41.6133 99.1806 41.6133 99.7942V102.749H40.7415L40.6543 102.042H40.5865C40.4444 102.268 40.2668 102.461 40.0537 102.623C39.8406 102.784 39.5209 102.865 39.0946 102.865ZM39.2884 102.003C39.7082 102.003 40.0214 101.877 40.228 101.625C40.4412 101.367 40.5574 101.041 40.5768 100.647H39.4531C39.0849 100.647 38.8234 100.708 38.6684 100.831C38.5199 100.947 38.4456 101.112 38.4456 101.325C38.4456 101.538 38.5199 101.706 38.6684 101.828C38.8234 101.945 39.03 102.003 39.2884 102.003ZM45.8623 102.749C45.3908 102.749 45.0162 102.636 44.7385 102.41C44.4608 102.177 44.322 101.767 44.322 101.179V98.8157H43.1111V97.9439H43.8279C44.1573 97.9439 44.351 97.7824 44.4092 97.4595L44.5545 96.6845H45.3488V97.9439H47.2476V98.8157H45.3488V101.16C45.3488 101.412 45.4037 101.59 45.5135 101.693C45.6298 101.79 45.8267 101.838 46.1044 101.838H47.2282V102.749H45.8623ZM50.7118 102.865C50.3308 102.865 50.0111 102.8 49.7528 102.671C49.4944 102.536 49.3007 102.358 49.1715 102.138C49.0424 101.912 48.9778 101.667 48.9778 101.402C48.9778 100.931 49.1489 100.563 49.4912 100.298C49.84 100.033 50.3308 99.9007 50.9637 99.9007H52.2037V99.7942C52.2037 99.0708 51.8678 98.7092 51.1962 98.7092C50.9185 98.7092 50.6828 98.7705 50.489 98.8932C50.3017 99.0095 50.1758 99.2 50.1112 99.4648H49.0843C49.136 98.961 49.3524 98.5639 49.7334 98.2732C50.1209 97.9762 50.6085 97.8276 51.1962 97.8276C51.9066 97.8276 52.4232 98.002 52.7461 98.3507C53.0691 98.6995 53.2305 99.1806 53.2305 99.7942V102.749H52.3587L52.2715 102.042H52.2037C52.0616 102.268 51.884 102.461 51.6709 102.623C51.4577 102.784 51.1381 102.865 50.7118 102.865ZM50.9056 102.003C51.3253 102.003 51.6386 101.877 51.8452 101.625C52.0583 101.367 52.1746 101.041 52.194 100.647H51.0702C50.7021 100.647 50.4406 100.708 50.2856 100.831C50.137 100.947 50.0628 101.112 50.0628 101.325C50.0628 101.538 50.137 101.706 50.2856 101.828C50.4406 101.945 50.6472 102.003 50.9056 102.003ZM60.6337 102.749V95.9677H64.9639V96.888H61.6606V98.8642H64.6733V99.7748H61.6606V101.828H64.9639V102.749H60.6337ZM66.4229 102.749V97.9439H67.3142L67.4014 98.6607H67.4498C67.579 98.4282 67.7792 98.2313 68.0504 98.0698C68.3217 97.9084 68.6349 97.8276 68.9901 97.8276C69.5778 97.8276 70.0202 98.0052 70.3172 98.3604C70.6143 98.7156 70.7629 99.2387 70.7629 99.9298V102.749H69.736V100.056C69.736 99.6553 69.652 99.3453 69.4841 99.1257C69.3162 98.9062 69.0514 98.7964 68.6898 98.7964C68.3346 98.7964 68.0375 98.9158 67.7985 99.1548C67.566 99.3937 67.4498 99.7393 67.4498 100.191V102.749H66.4229ZM74.2756 101.363C73.9785 101.363 73.704 101.315 73.4521 101.218L73.21 101.509C73.1325 101.606 73.1099 101.699 73.1421 101.79C73.1809 101.874 73.2681 101.916 73.4037 101.916H74.6727C75.2346 101.916 75.6867 102.035 76.029 102.274C76.3777 102.507 76.5521 102.865 76.5521 103.349C76.5521 103.653 76.4746 103.927 76.3196 104.173C76.171 104.425 75.9289 104.625 75.593 104.773C75.2637 104.922 74.8277 104.996 74.2852 104.996C73.6007 104.996 73.0485 104.867 72.6287 104.609C72.2154 104.357 72.0087 103.976 72.0087 103.466C72.0087 103.285 72.0507 103.117 72.1347 102.962C72.2251 102.813 72.3413 102.678 72.4834 102.555C72.309 102.426 72.2025 102.245 72.1637 102.013C72.1314 101.774 72.2025 101.544 72.3768 101.325L72.8031 100.782C72.4996 100.459 72.3478 100.062 72.3478 99.5907C72.3478 99.2743 72.4221 98.9837 72.5706 98.7189C72.7256 98.4476 72.9452 98.2313 73.2293 98.0698C73.5199 97.9084 73.8687 97.8276 74.2756 97.8276C74.5403 97.8276 74.7858 97.8664 75.0118 97.9439H76.8233V98.622L75.9805 98.6704V98.7576C76.1161 99.0095 76.184 99.2872 76.184 99.5907C76.184 99.9072 76.1065 100.201 75.9515 100.472C75.8029 100.744 75.5866 100.96 75.3024 101.121C75.0183 101.283 74.676 101.363 74.2756 101.363ZM74.2756 100.54C74.5597 100.54 74.7922 100.456 74.973 100.288C75.1603 100.12 75.254 99.8878 75.254 99.5907C75.254 99.3066 75.1603 99.0805 74.973 98.9126C74.7922 98.7447 74.5597 98.6607 74.2756 98.6607C73.9849 98.6607 73.746 98.7447 73.5587 98.9126C73.3779 99.0805 73.2875 99.3066 73.2875 99.5907C73.2875 99.8878 73.3779 100.12 73.5587 100.288C73.746 100.456 73.9849 100.54 74.2756 100.54ZM72.9775 103.388C72.9775 103.646 73.1002 103.837 73.3456 103.96C73.5974 104.082 73.9107 104.144 74.2852 104.144C74.6857 104.144 75.0021 104.076 75.2346 103.94C75.4671 103.805 75.5833 103.614 75.5833 103.369C75.5833 103.162 75.4994 102.997 75.3315 102.875C75.1636 102.758 74.8794 102.7 74.479 102.7H73.3456C73.1002 102.894 72.9775 103.123 72.9775 103.388ZM80.0938 97.2076C79.8678 97.2076 79.6773 97.1366 79.5223 96.9945C79.3737 96.846 79.2995 96.6652 79.2995 96.452C79.2995 96.2389 79.3737 96.0613 79.5223 95.9192C79.6773 95.7772 79.8678 95.7061 80.0938 95.7061C80.3263 95.7061 80.5169 95.7772 80.6654 95.9192C80.8204 96.0613 80.8979 96.2389 80.8979 96.452C80.8979 96.6652 80.8204 96.846 80.6654 96.9945C80.5169 97.1366 80.3263 97.2076 80.0938 97.2076ZM78.1661 102.749V101.858H79.6773V99.1548C79.6773 98.9417 79.574 98.8351 79.3673 98.8351H78.3017V97.9439H79.5514C79.9518 97.9439 80.2424 98.0375 80.4232 98.2248C80.6105 98.4056 80.7041 98.6963 80.7041 99.0967V101.858H82.2154V102.749H78.1661ZM83.8487 102.749V97.9439H84.74L84.8271 98.6607H84.8756C85.0047 98.4282 85.2049 98.2313 85.4762 98.0698C85.7474 97.9084 86.0607 97.8276 86.4159 97.8276C87.0036 97.8276 87.4459 98.0052 87.743 98.3604C88.0401 98.7156 88.1886 99.2387 88.1886 99.9298V102.749H87.1618V100.056C87.1618 99.6553 87.0778 99.3453 86.9099 99.1257C86.742 98.9062 86.4772 98.7964 86.1156 98.7964C85.7604 98.7964 85.4633 98.9158 85.2243 99.1548C84.9918 99.3937 84.8756 99.7393 84.8756 100.191V102.749H83.8487ZM91.866 102.865C91.401 102.865 90.9909 102.762 90.6357 102.555C90.2805 102.342 90.0028 102.048 89.8026 101.673C89.6024 101.299 89.5023 100.863 89.5023 100.366C89.5023 99.862 89.5992 99.4196 89.7929 99.0385C89.9931 98.6575 90.2708 98.3604 90.626 98.1473C90.9877 97.9342 91.4043 97.8276 91.8757 97.8276C92.3407 97.8276 92.7411 97.9342 93.0769 98.1473C93.4128 98.354 93.6711 98.6317 93.8519 98.9804C94.0392 99.3292 94.1329 99.7134 94.1329 100.133C94.1329 100.198 94.1329 100.269 94.1329 100.346C94.1329 100.417 94.1296 100.498 94.1232 100.589H90.5098C90.5421 101.034 90.6874 101.373 90.9457 101.606C91.2041 101.832 91.5076 101.945 91.8563 101.945C92.1599 101.945 92.3988 101.883 92.5732 101.761C92.754 101.632 92.8864 101.457 92.9704 101.238H94.0069C93.8907 101.696 93.6485 102.084 93.2804 102.4C92.9123 102.71 92.4408 102.865 91.866 102.865ZM91.866 98.7189C91.5496 98.7189 91.2686 98.8157 91.0232 99.0095C90.7778 99.1968 90.6196 99.4616 90.5486 99.8038H93.106C93.0802 99.4809 92.9542 99.2194 92.7282 99.0192C92.5022 98.819 92.2148 98.7189 91.866 98.7189ZM97.6746 102.865C97.2096 102.865 96.7995 102.762 96.4443 102.555C96.0891 102.342 95.8114 102.048 95.6112 101.673C95.411 101.299 95.3109 100.863 95.3109 100.366C95.3109 99.862 95.4078 99.4196 95.6015 99.0385C95.8017 98.6575 96.0794 98.3604 96.4346 98.1473C96.7963 97.9342 97.2129 97.8276 97.6843 97.8276C98.1493 97.8276 98.5497 97.9342 98.8855 98.1473C99.2214 98.354 99.4797 98.6317 99.6605 98.9804C99.8478 99.3292 99.9414 99.7134 99.9414 100.133C99.9414 100.198 99.9414 100.269 99.9414 100.346C99.9414 100.417 99.9382 100.498 99.9318 100.589H96.3184C96.3507 101.034 96.496 101.373 96.7543 101.606C97.0127 101.832 97.3162 101.945 97.6649 101.945C97.9685 101.945 98.2074 101.883 98.3818 101.761C98.5626 101.632 98.695 101.457 98.779 101.238H99.8155C99.6993 101.696 99.4571 102.084 99.089 102.4C98.7208 102.71 98.2494 102.865 97.6746 102.865ZM97.6746 98.7189C97.3582 98.7189 97.0772 98.8157 96.8318 99.0095C96.5864 99.1968 96.4282 99.4616 96.3571 99.8038H98.9146C98.8888 99.4809 98.7628 99.2194 98.5368 99.0192C98.3107 98.819 98.0234 98.7189 97.6746 98.7189ZM101.265 102.749V101.858H102.437V99.1548C102.437 98.9417 102.334 98.8351 102.127 98.8351H101.362V97.9439H102.514C102.779 97.9439 102.996 98.0214 103.164 98.1764C103.331 98.3249 103.415 98.5348 103.415 98.806V98.9223H103.464C103.535 98.5606 103.687 98.2894 103.919 98.1086C104.158 97.9213 104.504 97.8276 104.956 97.8276H105.702V98.9126H104.655C104.274 98.9126 103.98 99.045 103.774 99.3098C103.567 99.5746 103.464 99.891 103.464 100.259V101.858H104.956V102.749H101.265ZM42.7042 112.749L44.7288 105.968H45.9494L47.9741 112.749H46.8601L46.4048 111.121H44.2735L43.8182 112.749H42.7042ZM45.3101 107.421L44.506 110.298H46.1723L45.3682 107.421H45.3101ZM51.1865 112.865C50.5536 112.865 50.0498 112.716 49.6753 112.419C49.3007 112.122 49.0876 111.728 49.0359 111.238H50.0918C50.1306 111.464 50.2436 111.648 50.4309 111.79C50.6246 111.932 50.8797 112.003 51.1962 112.003C51.4997 112.003 51.7322 111.942 51.8937 111.819C52.0616 111.69 52.1455 111.541 52.1455 111.373C52.1455 111.128 52.0454 110.96 51.8452 110.869C51.6515 110.779 51.3641 110.711 50.9831 110.666C50.6537 110.627 50.3534 110.553 50.0821 110.443C49.8174 110.327 49.6075 110.172 49.4525 109.978C49.2975 109.778 49.22 109.529 49.22 109.232C49.22 108.813 49.3847 108.473 49.714 108.215C50.0434 107.957 50.5019 107.828 51.0896 107.828C51.6773 107.828 52.1326 107.96 52.4555 108.225C52.7784 108.49 52.9657 108.851 53.0174 109.31H52.0293C52.0035 109.116 51.9034 108.964 51.729 108.854C51.5546 108.738 51.3383 108.68 51.0799 108.68C50.8151 108.68 50.6053 108.732 50.4503 108.835C50.2953 108.932 50.2178 109.061 50.2178 109.223C50.2178 109.571 50.5923 109.784 51.3415 109.862C51.6967 109.901 52.0131 109.969 52.2908 110.065C52.5685 110.156 52.7881 110.301 52.9496 110.501C53.111 110.695 53.1918 110.97 53.1918 111.325C53.1982 111.615 53.1143 111.877 52.9399 112.109C52.772 112.342 52.5363 112.526 52.2327 112.662C51.9356 112.797 51.5869 112.865 51.1865 112.865ZM56.9951 112.865C56.3622 112.865 55.8584 112.716 55.4839 112.419C55.1093 112.122 54.8962 111.728 54.8445 111.238H55.9004C55.9392 111.464 56.0522 111.648 56.2395 111.79C56.4332 111.932 56.6883 112.003 57.0048 112.003C57.3083 112.003 57.5408 111.942 57.7023 111.819C57.8702 111.69 57.9541 111.541 57.9541 111.373C57.9541 111.128 57.854 110.96 57.6538 110.869C57.4601 110.779 57.1727 110.711 56.7917 110.666C56.4623 110.627 56.162 110.553 55.8907 110.443C55.6259 110.327 55.4161 110.172 55.2611 109.978C55.1061 109.778 55.0286 109.529 55.0286 109.232C55.0286 108.813 55.1932 108.473 55.5226 108.215C55.852 107.957 56.3105 107.828 56.8982 107.828C57.4859 107.828 57.9412 107.96 58.2641 108.225C58.587 108.49 58.7743 108.851 58.826 109.31H57.8379C57.812 109.116 57.7119 108.964 57.5376 108.854C57.3632 108.738 57.1469 108.68 56.8885 108.68C56.6237 108.68 56.4138 108.732 56.2589 108.835C56.1039 108.932 56.0264 109.061 56.0264 109.223C56.0264 109.571 56.4009 109.784 57.1501 109.862C57.5053 109.901 57.8217 109.969 58.0994 110.065C58.3771 110.156 58.5967 110.301 58.7582 110.501C58.9196 110.695 59.0004 110.97 59.0004 111.325C59.0068 111.615 58.9229 111.877 58.7485 112.109C58.5806 112.342 58.3448 112.526 58.0413 112.662C57.7442 112.797 57.3955 112.865 56.9951 112.865ZM62.7649 112.865C62.3064 112.865 61.8963 112.762 61.5346 112.555C61.173 112.348 60.8888 112.058 60.6822 111.683C60.4755 111.302 60.3722 110.857 60.3722 110.346C60.3722 109.836 60.4755 109.394 60.6822 109.019C60.8888 108.638 61.173 108.344 61.5346 108.138C61.8963 107.931 62.3096 107.828 62.7746 107.828C63.2396 107.828 63.6497 107.931 64.0049 108.138C64.3666 108.344 64.6475 108.638 64.8477 109.019C65.0544 109.394 65.1577 109.836 65.1577 110.346C65.1577 110.857 65.0544 111.302 64.8477 111.683C64.641 112.058 64.3569 112.348 63.9952 112.555C63.64 112.762 63.2299 112.865 62.7649 112.865ZM62.7649 111.887C63.0103 111.887 63.2364 111.832 63.443 111.722C63.6497 111.612 63.8144 111.444 63.9371 111.218C64.0663 110.986 64.1308 110.695 64.1308 110.346C64.1308 109.991 64.0663 109.701 63.9371 109.474C63.8144 109.248 63.6497 109.081 63.443 108.971C63.2428 108.861 63.02 108.806 62.7746 108.806C62.5292 108.806 62.3032 108.861 62.0965 108.971C61.8898 109.081 61.7219 109.248 61.5928 109.474C61.4701 109.701 61.4087 109.991 61.4087 110.346C61.4087 110.876 61.5411 111.267 61.8059 111.518C62.0771 111.764 62.3968 111.887 62.7649 111.887ZM68.6413 112.865C68.1957 112.865 67.7953 112.762 67.4401 112.555C67.0914 112.348 66.8169 112.058 66.6167 111.683C66.4165 111.302 66.3164 110.857 66.3164 110.346C66.3164 109.836 66.4165 109.394 66.6167 109.019C66.8234 108.645 67.1011 108.354 67.4498 108.147C67.7985 107.934 68.1957 107.828 68.6413 107.828C69.2549 107.828 69.7489 107.983 70.1235 108.293C70.5045 108.596 70.7467 109.016 70.85 109.552H69.7747C69.7102 109.319 69.5778 109.135 69.3776 109C69.1838 108.864 68.9352 108.796 68.6316 108.796C68.4121 108.796 68.2022 108.854 68.002 108.971C67.8082 109.087 67.65 109.261 67.5273 109.494C67.411 109.72 67.3529 110.004 67.3529 110.346C67.3529 110.682 67.411 110.966 67.5273 111.199C67.65 111.431 67.8082 111.609 68.002 111.732C68.2022 111.848 68.4121 111.906 68.6316 111.906C68.9416 111.906 69.1903 111.838 69.3776 111.703C69.5649 111.567 69.6973 111.38 69.7747 111.141H70.85C70.7209 111.67 70.469 112.09 70.0944 112.4C69.7199 112.71 69.2355 112.865 68.6413 112.865ZM74.2852 107.208C74.0592 107.208 73.8687 107.137 73.7137 106.995C73.5652 106.846 73.4909 106.665 73.4909 106.452C73.4909 106.239 73.5652 106.061 73.7137 105.919C73.8687 105.777 74.0592 105.706 74.2852 105.706C74.5177 105.706 74.7083 105.777 74.8568 105.919C75.0118 106.061 75.0893 106.239 75.0893 106.452C75.0893 106.665 75.0118 106.846 74.8568 106.995C74.7083 107.137 74.5177 107.208 74.2852 107.208ZM72.3575 112.749V111.858H73.8687V109.155C73.8687 108.942 73.7654 108.835 73.5587 108.835H72.4931V107.944H73.7428C74.1432 107.944 74.4338 108.038 74.6146 108.225C74.8019 108.406 74.8955 108.696 74.8955 109.097V111.858H76.4068V112.749H72.3575ZM79.7548 112.865C79.3737 112.865 79.0541 112.8 78.7957 112.671C78.5374 112.536 78.3437 112.358 78.2145 112.138C78.0853 111.912 78.0207 111.667 78.0207 111.402C78.0207 110.931 78.1919 110.563 78.5342 110.298C78.8829 110.033 79.3737 109.901 80.0066 109.901H81.2466V109.794C81.2466 109.071 80.9108 108.709 80.2391 108.709C79.9614 108.709 79.7257 108.771 79.532 108.893C79.3447 109.009 79.2187 109.2 79.1542 109.465H78.1273C78.179 108.961 78.3953 108.564 78.7764 108.273C79.1639 107.976 79.6514 107.828 80.2391 107.828C80.9495 107.828 81.4662 108.002 81.7891 108.351C82.112 108.699 82.2735 109.181 82.2735 109.794V112.749H81.4016L81.3144 112.042H81.2466C81.1045 112.268 80.9269 112.461 80.7138 112.623C80.5007 112.784 80.181 112.865 79.7548 112.865ZM79.9485 112.003C80.3683 112.003 80.6815 111.877 80.8882 111.625C81.1013 111.367 81.2176 111.041 81.2369 110.647H80.1132C79.7451 110.647 79.4835 110.708 79.3285 110.831C79.18 110.947 79.1057 111.112 79.1057 111.325C79.1057 111.538 79.18 111.706 79.3285 111.828C79.4835 111.945 79.6902 112.003 79.9485 112.003ZM86.5224 112.749C86.051 112.749 85.6764 112.636 85.3987 112.41C85.121 112.177 84.9821 111.767 84.9821 111.179V108.816H83.7712V107.944H84.4881C84.8174 107.944 85.0112 107.782 85.0693 107.46L85.2146 106.685H86.009V107.944H87.9077V108.816H86.009V111.16C86.009 111.412 86.0639 111.59 86.1737 111.693C86.2899 111.79 86.4869 111.838 86.7646 111.838H87.8883V112.749H86.5224ZM91.866 112.865C91.401 112.865 90.9909 112.762 90.6357 112.555C90.2805 112.342 90.0028 112.048 89.8026 111.673C89.6024 111.299 89.5023 110.863 89.5023 110.366C89.5023 109.862 89.5992 109.42 89.7929 109.039C89.9931 108.658 90.2708 108.36 90.626 108.147C90.9877 107.934 91.4043 107.828 91.8757 107.828C92.3407 107.828 92.7411 107.934 93.0769 108.147C93.4128 108.354 93.6711 108.632 93.8519 108.98C94.0392 109.329 94.1328 109.713 94.1328 110.133C94.1328 110.198 94.1328 110.269 94.1328 110.346C94.1328 110.417 94.1296 110.498 94.1232 110.589H90.5098C90.5421 111.034 90.6874 111.373 90.9457 111.606C91.2041 111.832 91.5076 111.945 91.8563 111.945C92.1599 111.945 92.3988 111.883 92.5732 111.761C92.754 111.632 92.8864 111.457 92.9704 111.238H94.0069C93.8907 111.696 93.6485 112.084 93.2804 112.4C92.9122 112.71 92.4408 112.865 91.866 112.865ZM91.866 108.719C91.5496 108.719 91.2686 108.816 91.0232 109.009C90.7778 109.197 90.6196 109.462 90.5485 109.804H93.106C93.0802 109.481 92.9542 109.219 92.7282 109.019C92.5021 108.819 92.2148 108.719 91.866 108.719Z" fill="white"></path><g clip-path="url(#clip2_852_3149)"><path fill-rule="evenodd" clip-rule="evenodd" d="M0 29.1992C0 17.9994 30.8629 8.31738 68.8958 8.31738C106.936 8.31738 137.799 17.9994 137.769 29.1992V149.987C137.769 150.78 137.563 151.559 137.169 152.247C136.776 152.936 136.209 153.509 135.526 153.912L68.9407 192.535L2.24295 153.912C1.55967 153.509 0.993333 152.936 0.599935 152.247C0.206537 151.559 -0.000278495 150.78 0 149.987V29.1992ZM68.9747 187.576L68.9229 187.606L68.9751 187.576L68.9747 187.576ZM133.344 150.334L68.9747 187.576L4.5535 150.304C4.49461 150.27 4.4457 150.221 4.41168 150.162C4.37766 150.103 4.35972 150.036 4.35967 149.968V29.5221C4.2404 26.436 9.62997 22.2764 21.6689 18.8175H21.7808C21.9925 18.7612 22.2103 18.7311 22.4293 18.7281C23.0719 18.7281 23.6881 18.9833 24.1424 19.4376C24.5968 19.892 24.852 20.5082 24.852 21.1508C24.9514 22.4809 25.3507 22.8265 26.0111 23.3978C26.3002 23.648 26.6393 23.9415 27.0253 24.3798C27.9098 25.3846 29.0064 25.4611 30.227 25.5462C30.7552 25.5831 31.3066 25.6216 31.8741 25.7376C44.0802 28.0828 56.4863 29.2288 68.9154 29.1592H68.9676C81.3967 29.2288 93.8029 28.0828 106.009 25.7376C106.577 25.6216 107.128 25.5833 107.657 25.5465C108.878 25.4615 109.975 25.3852 110.861 24.3805C111.247 23.942 111.587 23.6485 111.877 23.3982C112.538 22.827 112.938 22.4811 113.038 21.1508C113.04 20.5088 113.296 19.8937 113.75 19.4398C114.204 18.9859 114.819 18.73 115.461 18.7281C115.683 18.7311 115.903 18.7612 116.117 18.8175H116.229C128.268 22.2764 133.65 26.436 133.538 29.5221V149.998C133.538 150.066 133.52 150.133 133.486 150.192C133.452 150.251 133.403 150.3 133.344 150.334Z" fill="#1B3139"></path></g><path d="M23.6598 77.6963V69.2199H25.2098V76.4854H28.9636V77.6963H23.6598ZM32.4484 77.6963L35.5483 69.2199H37.292L40.3919 77.6963H38.7451L38.067 75.7346H34.7612L34.071 77.6963H32.4484ZM35.185 74.5237H37.6432L36.408 70.9999L35.185 74.5237ZM44.1479 77.6963V69.2199H45.6978V72.6468L48.8341 69.2199H50.7473L47.6232 72.5862L50.8321 77.6963H48.931L46.5091 73.7729L45.6978 74.6569V77.6963H44.1479ZM54.5574 77.6963V69.2199H60.0913V70.4671H56.1074V72.7921H59.728V74.003H56.1074V76.449H60.0913V77.6963H54.5574ZM64.222 77.6963V69.2199H65.772V72.7437H69.5743V69.2199H71.1242V77.6963H69.5743V74.003H65.772V77.6963H64.222ZM79.4075 77.8416C78.5599 77.8416 77.8172 77.6559 77.1794 77.2846C76.5498 76.9132 76.0533 76.4006 75.69 75.7467C75.3348 75.0848 75.1572 74.3219 75.1572 73.4581C75.1572 72.5943 75.3348 71.8355 75.69 71.1816C76.0533 70.5196 76.5498 70.003 77.1794 69.6316C77.8172 69.2603 78.5599 69.0746 79.4075 69.0746C80.2471 69.0746 80.9858 69.2603 81.6235 69.6316C82.2612 70.003 82.7577 70.5196 83.1129 71.1816C83.4681 71.8355 83.6457 72.5943 83.6457 73.4581C83.6457 74.3219 83.4681 75.0848 83.1129 75.7467C82.7577 76.4006 82.2612 76.9132 81.6235 77.2846C80.9858 77.6559 80.2471 77.8416 79.4075 77.8416ZM79.4075 76.449C80.2148 76.449 80.8566 76.1826 81.3329 75.6498C81.8172 75.117 82.0594 74.3865 82.0594 73.4581C82.0594 72.5297 81.8172 71.7991 81.3329 71.2663C80.8566 70.7335 80.2148 70.4671 79.4075 70.4671C78.6003 70.4671 77.9544 70.7335 77.4701 71.2663C76.9857 71.7991 76.7435 72.5297 76.7435 73.4581C76.7435 74.3865 76.9857 75.117 77.4701 75.6498C77.9544 76.1826 78.6003 76.449 79.4075 76.449ZM90.9477 77.8416C90.3261 77.8416 89.7651 77.7205 89.2645 77.4783C88.764 77.2281 88.3644 76.8527 88.0657 76.3522C87.7751 75.8517 87.6298 75.218 87.6298 74.451V69.2199H89.1798V74.4632C89.1798 75.1251 89.3372 75.6176 89.652 75.9405C89.9749 76.2634 90.4189 76.4248 90.984 76.4248C91.5411 76.4248 91.981 76.2634 92.3039 75.9405C92.6268 75.6176 92.7883 75.1251 92.7883 74.4632V69.2199H94.3383V74.451C94.3383 75.218 94.1849 75.8517 93.8781 76.3522C93.5714 76.8527 93.1596 77.2281 92.643 77.4783C92.1344 77.7205 91.5693 77.8416 90.9477 77.8416ZM101.479 77.8416C100.857 77.8416 100.308 77.7367 99.8317 77.5268C99.3554 77.3088 98.9801 77.002 98.7056 76.6065C98.4311 76.2028 98.2898 75.7144 98.2818 75.1413H99.9165C99.9326 75.5368 100.074 75.8718 100.34 76.1463C100.615 76.4127 100.99 76.5459 101.466 76.5459C101.878 76.5459 102.205 76.449 102.447 76.2553C102.689 76.0535 102.811 75.7871 102.811 75.4561C102.811 75.109 102.702 74.8385 102.484 74.6448C102.274 74.451 101.991 74.2936 101.636 74.1725C101.281 74.0514 100.901 73.9223 100.498 73.785C99.8438 73.559 99.3433 73.2684 98.9962 72.9132C98.6572 72.558 98.4876 72.0857 98.4876 71.4964C98.4796 70.9959 98.5966 70.5681 98.8388 70.2129C99.089 69.8496 99.4281 69.5711 99.856 69.3773C100.284 69.1755 100.776 69.0746 101.333 69.0746C101.898 69.0746 102.395 69.1755 102.823 69.3773C103.259 69.5791 103.598 69.8617 103.84 70.225C104.09 70.5882 104.223 71.0201 104.239 71.5206H102.581C102.572 71.2219 102.455 70.9596 102.229 70.7335C102.011 70.4994 101.705 70.3824 101.309 70.3824C100.97 70.3743 100.683 70.4591 100.449 70.6367C100.223 70.8062 100.11 71.0565 100.11 71.3874C100.11 71.67 100.199 71.896 100.377 72.0655C100.554 72.227 100.796 72.3642 101.103 72.4773C101.41 72.5903 101.761 72.7114 102.157 72.8405C102.576 72.9858 102.96 73.1554 103.307 73.3491C103.654 73.5429 103.933 73.8012 104.143 74.1241C104.352 74.4389 104.457 74.8466 104.457 75.3471C104.457 75.7911 104.344 76.2028 104.118 76.5822C103.892 76.9617 103.557 77.2684 103.113 77.5025C102.669 77.7286 102.124 77.8416 101.479 77.8416ZM108.474 77.6963V69.2199H114.008V70.4671H110.024V72.7921H113.644V74.003H110.024V76.449H114.008V77.6963H108.474Z" fill="white"></path><path d="M46.8518 31.5165V30.6278C46.8512 30.5949 46.8406 30.5631 46.8212 30.5365C46.8019 30.5099 46.7749 30.4899 46.7438 30.4793C46.7128 30.4686 46.6792 30.4677 46.6476 30.4768C46.616 30.4859 46.588 30.5045 46.5674 30.53C46.2384 30.9136 45.829 31.2199 45.3682 31.4273C44.9073 31.6347 44.4065 31.7379 43.9012 31.7298C43.3592 31.7325 42.8226 31.6225 42.3254 31.4068C41.8281 31.1911 41.3812 30.8743 41.0129 30.4767C40.2406 29.6231 39.8213 28.5082 39.8398 27.3573C39.8148 26.8028 39.9005 26.249 40.092 25.7281C40.2835 25.2071 40.5768 24.7296 40.955 24.3233C41.3331 23.9171 41.7884 23.5903 42.2943 23.362C42.8001 23.1336 43.3464 23.0084 43.9012 22.9937C44.4022 22.9801 44.9001 23.0756 45.3604 23.2736C45.8208 23.4715 46.2326 23.7672 46.5674 24.1401C46.5932 24.1589 46.6243 24.169 46.6563 24.169C46.6882 24.169 46.7193 24.1589 46.7451 24.1401C46.7764 24.1291 46.8034 24.1086 46.8225 24.0815C46.8416 24.0545 46.8518 24.0221 46.8518 23.989V19.5454H48.6915V31.4898L46.8518 31.5165ZM46.9318 27.3573C46.9213 26.8429 46.7591 26.3431 46.4657 25.9205C46.1723 25.4979 45.7607 25.1713 45.2824 24.9817C44.8042 24.7921 44.2806 24.7479 43.7773 24.8546C43.274 24.9614 42.8134 25.2144 42.4533 25.5818C42.0932 25.9492 41.8496 26.4148 41.7531 26.9202C41.6565 27.4255 41.7113 27.9481 41.9105 28.4224C42.1097 28.8968 42.4446 29.3017 42.873 29.5865C43.3015 29.8714 43.8044 30.0233 44.3189 30.0234C45.0168 30.0095 45.6813 29.7224 46.1698 29.2239C46.6583 28.7254 46.9319 28.0552 46.9318 27.3573V27.3573ZM56.7077 31.5165V30.6278C56.72 30.5923 56.7185 30.5535 56.7038 30.519C56.689 30.4845 56.6619 30.4568 56.6277 30.4411C56.601 30.4246 56.5703 30.4159 56.5389 30.4159C56.5075 30.4159 56.4767 30.4246 56.45 30.4411C56.1235 30.8289 55.715 31.1393 55.2539 31.3499C54.7928 31.5604 54.2907 31.6659 53.7838 31.6587C52.6843 31.5727 51.6576 31.0752 50.9088 30.2655C50.1599 29.4559 49.7439 28.3935 49.7439 27.2906C49.7439 26.1877 50.1599 25.1254 50.9088 24.3157C51.6576 23.506 52.6843 23.0085 53.7838 22.9226C54.2849 22.9017 54.7843 22.9931 55.2455 23.1899C55.7068 23.3867 56.1183 23.684 56.45 24.0601C56.4712 24.0854 56.4993 24.1039 56.5309 24.1134C56.5625 24.1229 56.5961 24.1229 56.6277 24.1134C56.6583 24.1014 56.6846 24.0806 56.7036 24.0538C56.7225 24.027 56.7332 23.9952 56.7344 23.9624V23.127H58.5563V31.4454L56.7077 31.5165ZM56.7877 27.3573C56.7772 26.8429 56.6151 26.3431 56.3217 25.9205C56.0283 25.4979 55.6166 25.1713 55.1384 24.9817C54.6601 24.7921 54.1365 24.7479 53.6332 24.8546C53.1299 24.9614 52.6694 25.2144 52.3093 25.5818C51.9492 25.9492 51.7056 26.4148 51.609 26.9202C51.5124 27.4255 51.5672 27.9481 51.7664 28.4224C51.9657 28.8968 52.3005 29.3017 52.7289 29.5865C53.1574 29.8714 53.6604 30.0233 54.1749 30.0234C54.8711 30.0072 55.5334 29.7191 56.0201 29.2209C56.5067 28.7226 56.779 28.0537 56.7788 27.3573H56.7877ZM72.2959 31.5165V30.6278C72.298 30.5954 72.2896 30.5633 72.272 30.5361C72.2544 30.5089 72.2285 30.4881 72.1982 30.4767C72.1715 30.4602 72.1407 30.4514 72.1093 30.4514C72.0779 30.4514 72.0471 30.4602 72.0204 30.4767C71.6935 30.864 71.2849 31.174 70.8239 31.3846C70.3629 31.5951 69.861 31.7008 69.3543 31.6942C68.2547 31.6083 67.228 31.1108 66.4792 30.3011C65.7303 29.4914 65.3144 28.4291 65.3144 27.3262C65.3144 26.2233 65.7303 25.1609 66.4792 24.3512C67.228 23.5416 68.2547 23.0441 69.3543 22.9581C69.8552 22.9379 70.3544 23.0295 70.8156 23.2263C71.2768 23.423 71.6883 23.72 72.0204 24.0957C72.0416 24.1209 72.0697 24.1395 72.1013 24.1489C72.1329 24.1584 72.1666 24.1584 72.1982 24.149C72.2277 24.1365 72.2529 24.1154 72.2703 24.0885C72.2877 24.0616 72.2967 24.03 72.2959 23.9979V23.1625H74.1267V31.481L72.2959 31.5165ZM72.3848 27.3573C72.3743 26.8429 72.2122 26.3431 71.9188 25.9205C71.6254 25.4979 71.2137 25.1713 70.7355 24.9817C70.2572 24.7921 69.7336 24.7479 69.2303 24.8546C68.727 24.9614 68.2665 25.2144 67.9064 25.5818C67.5463 25.9492 67.3027 26.4148 67.2061 26.9202C67.1095 27.4255 67.1643 27.9481 67.3635 28.4224C67.5628 28.8968 67.8976 29.3017 68.326 29.5865C68.7545 29.8714 69.2575 30.0233 69.772 30.0234C70.4682 30.0072 71.1305 29.7191 71.6171 29.2209C72.1038 28.7226 72.3761 28.0537 72.3759 27.3573H72.3848ZM77.3616 30.6811V31.5165H75.522V19.5721H77.3616V24.0868C77.3616 24.1199 77.3718 24.1522 77.3909 24.1793C77.41 24.2064 77.4371 24.2268 77.4683 24.2379C77.4956 24.2526 77.5261 24.2604 77.5571 24.2604C77.5882 24.2604 77.6187 24.2526 77.646 24.2379C77.975 23.8543 78.3845 23.5479 78.8453 23.3406C79.3061 23.1332 79.8069 23.0299 80.3122 23.0381C80.8535 23.0348 81.3895 23.1436 81.8866 23.3578C82.3837 23.5719 82.8311 23.8867 83.2005 24.2823C83.9712 25.1368 84.3903 26.2511 84.3737 27.4017C84.3999 27.9569 84.315 28.5117 84.1241 29.0336C83.9332 29.5556 83.64 30.0342 83.2618 30.4414C82.8835 30.8486 82.4278 31.1763 81.9213 31.4051C81.4148 31.634 80.8678 31.7595 80.3122 31.7742C79.8104 31.7879 79.3117 31.6915 78.8511 31.4919C78.3905 31.2924 77.9792 30.9944 77.646 30.6189C77.6132 30.5854 77.5685 30.5662 77.5216 30.5656H77.4683C77.4404 30.5727 77.415 30.5871 77.3947 30.6075C77.3743 30.6278 77.3599 30.6532 77.3528 30.6811H77.3616ZM79.8945 30.059C80.424 30.0696 80.9446 29.9223 81.39 29.6358C81.8354 29.3494 82.1854 28.9368 82.3954 28.4506C82.6054 27.9645 82.6659 27.4268 82.5691 26.9061C82.4723 26.3855 82.2227 25.9055 81.852 25.5272C81.4814 25.149 81.0065 24.8897 80.4879 24.7825C79.9693 24.6752 79.4305 24.7248 78.9402 24.9249C78.4499 25.1251 78.0303 25.4667 77.735 25.9062C77.4396 26.3457 77.2818 26.8633 77.2816 27.3928C77.2815 28.0893 77.5538 28.7582 78.0404 29.2564C78.5271 29.7547 79.1894 30.0427 79.8856 30.059H79.8945ZM89.6704 24.9044C89.8182 24.889 89.9671 24.889 90.1148 24.9044V23.0203C90.0115 23.0086 89.9071 23.0086 89.8037 23.0203C89.343 23.0152 88.8887 23.1295 88.4853 23.3523C88.0819 23.575 87.7431 23.8985 87.502 24.2912C87.484 24.3206 87.4569 24.3434 87.4249 24.3563C87.3929 24.3691 87.3576 24.3712 87.3242 24.3623C87.2913 24.3528 87.2624 24.333 87.2416 24.3058C87.2208 24.2786 87.2092 24.2454 87.2087 24.2112V23.1892H85.3868V31.5076H87.2265V27.8638C87.2087 25.9975 88.1419 24.9044 89.6527 24.9044H89.6704ZM91.2702 23.1981V31.5165H93.1276V23.1981H91.2702ZM92.1589 19.5721C91.9357 19.5721 91.7174 19.6383 91.5318 19.7623C91.3462 19.8863 91.2015 20.0626 91.1161 20.2688C91.0307 20.4751 91.0083 20.702 91.0519 20.9209C91.0954 21.1399 91.2029 21.341 91.3608 21.4988C91.5186 21.6567 91.7197 21.7642 91.9387 21.8077C92.1576 21.8513 92.3846 21.8289 92.5908 21.7435C92.797 21.6581 92.9733 21.5134 93.0973 21.3278C93.2214 21.1422 93.2876 20.924 93.2876 20.7007C93.2876 20.4045 93.1711 20.12 92.9633 19.9089C92.7554 19.6977 92.4729 19.5767 92.1766 19.5721H92.1589ZM98.5666 22.9937C97.9856 22.9701 97.406 23.0666 96.864 23.2772C96.322 23.4877 95.8292 23.8076 95.4164 24.2171C95.0035 24.6266 94.6796 25.1168 94.4647 25.6571C94.2498 26.1973 94.1486 26.7761 94.1674 27.3573C94.1448 27.9383 94.2428 28.5177 94.4551 29.059C94.6674 29.6003 94.9895 30.0918 95.4011 30.5025C95.8126 30.9132 96.3048 31.2343 96.8465 31.4455C97.3882 31.6568 97.9678 31.7535 98.5488 31.7298C99.8045 31.7402 101.019 31.2805 101.953 30.4411L100.904 29.3391C100.289 29.7913 99.5518 30.0482 98.7887 30.0768C98.0816 30.0768 97.4035 29.7959 96.9035 29.2959C96.4035 28.7959 96.1226 28.1177 96.1226 27.4106C96.1226 26.7035 96.4035 26.0253 96.9035 25.5253C97.4035 25.0253 98.0816 24.7444 98.7887 24.7444C99.5446 24.7526 100.276 25.0121 100.868 25.4821L101.953 24.309C101.034 23.4534 99.822 22.9827 98.5666 22.9937V22.9937ZM105.143 27.8461C105.177 27.8322 105.216 27.8322 105.25 27.8461V27.8461C105.293 27.8505 105.334 27.8692 105.365 27.8994L108.307 31.552H110.573L106.769 26.8863C106.743 26.8569 106.729 26.819 106.729 26.7796C106.729 26.7403 106.743 26.7023 106.769 26.673L110.271 23.1714H108.031L105.01 26.2019C104.985 26.2188 104.955 26.2277 104.925 26.2277C104.895 26.2277 104.866 26.2188 104.841 26.2019C104.811 26.1895 104.786 26.1684 104.769 26.1414C104.751 26.1145 104.742 26.0829 104.743 26.0509V19.5099H102.904V31.4543H104.743V28.2193C104.744 28.1725 104.763 28.1277 104.797 28.0949L105.143 27.8461ZM113.577 31.7298C113.954 31.7638 114.333 31.721 114.693 31.6038C115.052 31.4867 115.384 31.2977 115.668 31.0484C115.953 30.799 116.183 30.4945 116.346 30.1534C116.509 29.8122 116.601 29.4414 116.617 29.0636C116.617 27.9261 115.906 27.1351 114.439 26.6552L113.435 26.3264C112.759 26.1042 112.44 25.7842 112.44 25.3488C112.44 24.9133 112.884 24.46 113.533 24.46C113.859 24.486 114.173 24.6019 114.438 24.7948C114.703 24.9877 114.909 25.2502 115.035 25.5532L116.51 24.7622C116.232 24.2153 115.805 23.7582 115.278 23.4437C114.751 23.1292 114.146 22.9701 113.533 22.9848C113.178 22.9519 112.82 22.9918 112.482 23.1022C112.143 23.2125 111.831 23.391 111.563 23.6265C111.296 23.8621 111.08 24.1497 110.928 24.4719C110.776 24.7941 110.692 25.1439 110.68 25.4999C110.68 26.6552 111.373 27.4373 112.786 27.8816L113.808 28.2105C114.537 28.4415 114.83 28.7259 114.83 29.1969C114.83 29.9079 114.173 30.1568 113.613 30.1568C113.23 30.142 112.86 30.013 112.552 29.7866C112.243 29.5601 112.009 29.2464 111.88 28.8859L110.395 29.668C110.649 30.2972 111.091 30.8329 111.66 31.2019C112.23 31.5709 112.899 31.7552 113.577 31.7298V31.7298ZM63.622 31.6409C64.0888 31.6412 64.5551 31.6085 65.0173 31.5432V29.9523C64.7225 29.9903 64.4258 30.011 64.1286 30.0146C63.382 30.0146 62.8132 29.8901 62.8132 28.2371V24.8244C62.8132 24.7835 62.8288 24.7441 62.8569 24.7143C62.885 24.6846 62.9235 24.6667 62.9643 24.6645H64.7418V23.1625H62.9643C62.9235 23.1602 62.885 23.1424 62.8569 23.1126C62.8288 23.0829 62.8132 23.0435 62.8132 23.0025V20.6652H60.9825V23.0736C60.9825 23.0946 60.9783 23.1154 60.9703 23.1349C60.9623 23.1543 60.9505 23.1719 60.9356 23.1868C60.9208 23.2016 60.9031 23.2134 60.8837 23.2214C60.8643 23.2295 60.8435 23.2336 60.8225 23.2336H59.5427V24.7355H60.8225C60.8435 24.7355 60.8643 24.7397 60.8837 24.7477C60.9031 24.7558 60.9208 24.7675 60.9356 24.7824C60.9505 24.7973 60.9623 24.8149 60.9703 24.8343C60.9783 24.8537 60.9825 24.8745 60.9825 24.8955V28.7704C60.9469 31.6409 62.8488 31.6409 63.622 31.6409ZM34.9607 24.9222L28.7396 28.4149L22.1009 24.6822L21.7898 24.8511V27.5706L28.7396 31.481L34.9607 27.9883V29.428L28.7396 32.9207L22.1009 29.188L21.7898 29.3658V29.8279L28.7396 33.7383L35.6894 29.8279V27.1084L35.3784 26.9307L28.7396 30.6633L22.5186 27.1706V25.7398L28.7396 29.2236L35.6894 25.3132V22.6471L35.3428 22.4515L28.7396 26.1664L22.8563 22.8515L28.7396 19.5454L33.5832 22.2649L34.0186 22.0249V21.6961L28.7396 18.7278L21.7898 22.6382V23.0647L28.7396 26.9751L34.9607 23.4824V24.9222Z" fill="white"></path></g><defs><clipPath id="clip0_852_3149"><rect width="138" height="191.747" fill="white" transform="translate(0 0.812012)"></rect></clipPath><clipPath id="clip1_852_3149"><rect width="64.7646" height="64.3159" fill="white" transform="translate(68.7798 118.028)"></rect></clipPath><clipPath id="clip2_852_3149"><rect width="138" height="190.295" fill="white" transform="translate(0 2.26465)"></rect></clipPath></defs></svg> 