<?xml version="1.0" encoding="UTF-8"?> <svg xmlns="http://www.w3.org/2000/svg" width="139" height="192" viewBox="0 0 139 192" fill="none"><g clip-path="url(#clip0_852_3318)"><path d="M69.2455 11.2219C31.8644 11.2219 4.50146 21.0045 4.50146 28.1817V94.421H134.626L133.989 28.1817C133.989 21.0045 106.627 11.2219 69.2455 11.2219Z" fill="#1B3139"></path><path d="M2.74365 102.201V149.166C2.74365 150.064 3.19237 150.812 3.94023 151.26L69.6023 189.252V102.201H2.74365Z" fill="#1F5262"></path><path d="M58.5342 165.035C58.5342 159.202 63.3205 154.416 69.1538 154.416V175.804C63.3205 175.804 58.5342 171.018 58.5342 165.035Z" fill="#90A5B1"></path><path d="M47.0171 166.082C47.0171 153.817 56.8888 143.945 69.1537 143.945C69.1537 143.048 69.1537 142.45 69.1537 142.45V117.022H57.7863V125.249C55.094 125.997 52.7008 127.044 50.1581 128.39L44.3248 122.557L28.4702 138.561L34.3035 144.394C32.9573 146.787 31.9103 149.33 31.1625 151.873H22.936V161.445L50.1581 177.15C48.2137 173.86 47.0171 170.12 47.0171 166.082Z" fill="#628794"></path><path d="M69.303 189.252L134.815 151.26C135.563 150.812 136.012 150.064 136.012 149.166V102.201H69.303V189.252Z" fill="#010101"></path><g clip-path="url(#clip1_852_3318)"><path d="M112.357 122.601C111.011 120.956 109.515 119.46 107.571 118.563C105.776 117.665 103.682 117.067 101.588 117.067C99.4938 117.067 97.5493 117.516 95.6049 118.563C93.81 119.46 92.1648 120.806 90.8186 122.601H112.357Z" fill="#1F5262"></path><path d="M69.2805 122.601C70.6267 124.396 72.272 125.742 74.0668 126.789C76.0113 127.836 77.9557 128.285 80.0497 128.285C82.1437 128.285 84.2377 127.836 86.0326 126.789C87.977 125.742 89.6223 124.396 90.8189 122.601H69.2805V122.601Z" fill="#1F5262"></path><path d="M112.357 122.601C113.703 124.396 115.348 125.742 117.143 126.789C119.088 127.836 121.032 128.285 123.126 128.285C125.22 128.285 127.314 127.836 129.109 126.789C131.053 125.742 132.699 124.396 133.895 122.601H112.357V122.601Z" fill="#1F5262"></path><path d="M112.357 133.37C111.011 131.575 109.515 130.229 107.571 129.332C105.626 128.434 103.682 127.836 101.588 127.836C99.4938 127.836 97.5493 128.285 95.6049 129.332C93.81 130.229 92.1648 131.725 90.8186 133.37H112.357Z" fill="#628794"></path><path d="M69.2805 133.37C70.6267 135.015 72.272 136.362 74.0668 137.259C76.0113 138.156 77.9557 138.605 80.0497 138.605C82.1437 138.605 84.2377 138.156 86.0326 137.259C87.977 136.362 89.6223 135.015 90.8189 133.37H69.2805Z" fill="#628794"></path><path d="M112.357 133.37C113.703 135.015 115.348 136.362 117.143 137.259C119.088 138.156 121.032 138.605 123.126 138.605C125.22 138.605 127.314 138.156 129.109 137.259C131.053 136.362 132.699 135.015 133.895 133.37H112.357Z" fill="#628794"></path><path d="M112.357 143.99C111.011 142.344 109.515 140.849 107.571 139.951C105.776 139.054 103.682 138.456 101.588 138.456C99.4938 138.456 97.5493 138.904 95.6049 139.951C93.81 140.849 92.1648 142.195 90.8186 143.99H112.357Z" fill="#1F5262"></path><path d="M69.2805 143.99C70.6267 145.785 72.272 147.131 74.0668 148.178C75.8617 149.225 77.9557 149.673 80.0497 149.673C82.1437 149.673 84.2377 149.225 86.0326 148.178C87.977 147.131 89.6223 145.785 90.8189 143.99H69.2805Z" fill="#1F5262"></path><path d="M112.357 143.99C113.703 145.785 115.348 147.131 117.143 148.178C119.088 149.225 121.032 149.673 123.126 149.673C125.22 149.673 127.314 149.225 129.109 148.178C131.053 147.131 132.699 145.785 133.895 143.99H112.357Z" fill="#1F5262"></path><path d="M112.357 154.759C111.011 152.964 109.515 151.618 107.571 150.72C105.626 149.823 103.682 149.225 101.588 149.225C99.4938 149.225 97.5493 149.673 95.6049 150.72C93.81 151.618 92.1648 153.113 90.8186 154.759H112.357Z" fill="#628794"></path><path d="M69.2805 154.759C70.6267 156.404 72.272 157.75 74.0668 158.648C76.0113 159.545 77.9557 159.994 80.0497 159.994C82.1437 159.994 84.2377 159.545 86.0326 158.648C87.977 157.75 89.6223 156.404 90.8189 154.759H69.2805Z" fill="#628794"></path><path d="M112.357 154.759C113.703 156.404 115.348 157.75 117.143 158.648C117.442 158.797 117.742 158.947 118.041 159.097L125.37 154.759H112.357V154.759Z" fill="#628794"></path><path d="M110.712 163.584C109.814 162.686 108.767 161.938 107.571 161.34C105.776 160.443 103.682 159.844 101.588 159.844C99.4938 159.844 97.5493 160.293 95.6049 161.34C93.81 162.237 92.1648 163.584 90.8186 165.378H107.421L110.712 163.584Z" fill="#1F5262"></path><path d="M69.2805 165.378C70.6267 167.173 72.272 168.519 74.0668 169.566C76.0113 170.613 77.9557 171.062 80.0497 171.062C82.1437 171.062 84.2377 170.613 86.0326 169.566C87.977 168.519 89.6223 167.173 90.8189 165.378H69.2805Z" fill="#1F5262"></path><path d="M69.2805 176.148C70.6267 177.793 72.272 179.139 74.0668 180.037C75.8617 180.934 77.9557 181.383 80.0497 181.383C80.3488 181.383 80.4984 181.383 80.7975 181.383L89.6223 176.148H69.2805Z" fill="#628794"></path></g><mask id="mask0_852_3318" style="mask-type:alpha" maskUnits="userSpaceOnUse" x="4" y="37" width="131" height="55"><path d="M4.85864 42.14C4.85864 39.465 7.02722 37.2964 9.70229 37.2964H129.34C132.015 37.2964 134.184 39.465 134.184 42.14V91.0609H4.85864V42.14Z" fill="white"></path></mask><g mask="url(#mask0_852_3318)"><rect x="3.88989" y="32.9373" width="131.747" height="59.5769" fill="#90A5B1"></rect><path d="M134.184 38.2651L3.69629 91.5453H134.184V38.2651Z" fill="#628895"></path></g><g clip-path="url(#clip2_852_3318)"><path fill-rule="evenodd" clip-rule="evenodd" d="M89.9156 63.4424C89.8724 63.3494 89.8524 63.3029 89.8292 63.2563C89.1961 62.0518 88.5631 60.8472 87.9251 59.6459C87.8603 59.5247 87.8686 59.4532 87.9567 59.3502C88.9635 58.1739 89.9671 56.9909 90.9689 55.8112C91.0038 55.7697 91.0354 55.7248 91.0487 55.6517C90.7546 55.7282 90.4622 55.8046 90.1681 55.881C88.9502 56.2033 87.734 56.5257 86.5178 56.8513C86.4048 56.8812 86.3533 56.848 86.2969 56.755C85.6057 55.6002 84.9112 54.4488 84.2167 53.2958C84.1801 53.2359 84.1419 53.1778 84.0655 53.1279C84.009 53.4353 83.9525 53.7427 83.8977 54.0501C83.7049 55.1367 83.5122 56.2233 83.3195 57.3099C83.2979 57.4279 83.2696 57.5442 83.2597 57.6621C83.2497 57.7751 83.1932 57.815 83.0902 57.8482C81.6563 58.2985 80.2225 58.7537 78.7886 59.2073C78.7255 59.2272 78.664 59.2522 78.5959 59.3136C79.7689 59.7789 80.9402 60.2457 82.1315 60.7193C82.0883 60.7541 82.0601 60.7807 82.0285 60.8007C81.2958 61.2742 80.5614 61.7477 79.8304 62.2246C79.7423 62.2811 79.6742 62.2894 79.5745 62.2462C78.6989 61.8524 77.82 61.4653 76.9427 61.0732C76.5489 60.897 76.195 60.6644 75.9192 60.3271C75.2962 59.5645 75.4191 58.6972 76.2499 58.1672C76.5223 57.9944 76.8297 57.8632 77.1388 57.7635C78.5444 57.3066 79.955 56.8646 81.3639 56.421C81.4819 56.3844 81.5367 56.3313 81.5583 56.2033C81.746 55.1151 81.9404 54.0301 82.1365 52.9435C82.2412 52.3637 82.2977 51.7672 82.5801 51.2355C82.6881 51.0312 82.8194 50.8301 82.9739 50.659C83.5338 50.0376 84.3147 50.0143 84.9062 50.6058C85.1056 50.8052 85.2784 51.0411 85.4262 51.282C86.0775 52.3454 86.7189 53.4137 87.3569 54.4854C87.4316 54.6116 87.4998 54.6382 87.6393 54.6C89.2111 54.178 90.7845 53.7643 92.3579 53.3473C92.6819 53.2609 93.0109 53.2293 93.3432 53.2924C94.0676 53.4287 94.385 53.9803 94.1407 54.6814C94.0294 55.0004 93.8367 55.2696 93.619 55.5255C92.5208 56.8164 91.4242 58.1091 90.3226 59.3967C90.2329 59.5014 90.2312 59.5778 90.2927 59.6958C90.9507 60.9353 91.602 62.1764 92.2549 63.4175C92.4111 63.7149 92.5307 64.0223 92.5341 64.3629C92.5424 65.1388 91.9741 65.7735 91.2049 65.8865C90.7729 65.9496 90.3725 65.8582 89.9671 65.732C88.9818 65.4279 87.9949 65.1272 87.0063 64.8314C86.9149 64.8048 86.88 64.7683 86.8634 64.6703C86.7504 63.9758 86.6258 63.2813 86.5062 62.5868C86.5029 62.5685 86.5079 62.5469 86.5112 62.5054C87.641 62.8144 88.7558 63.1218 89.9156 63.4424Z" fill="white"></path><path fill-rule="evenodd" clip-rule="evenodd" d="M87.9952 73.5671C87.1063 73.5655 86.2174 73.5622 85.3285 73.5655C85.2106 73.5655 85.1441 73.5322 85.0793 73.4326C84.0276 71.8292 82.9692 70.2292 81.9142 68.6292C81.8809 68.5777 81.8444 68.5295 81.7846 68.4431C81.557 70.1711 81.3343 71.8625 81.1117 73.5555C80.3341 73.5555 79.5715 73.5555 78.7839 73.5555C78.8105 73.3279 78.8354 73.1102 78.8637 72.8909C79.0913 71.1547 79.3189 69.4201 79.5466 67.6838C79.7642 66.0257 79.9819 64.3675 80.2028 62.7093C80.2095 62.6595 80.2427 62.598 80.2826 62.5714C81.0834 62.0497 81.8876 61.5314 82.6917 61.013C82.7034 61.0047 82.72 61.0047 82.7615 60.993C82.519 62.8473 82.2764 64.6865 82.0355 66.5258C82.0454 66.5324 82.0537 66.5391 82.0637 66.5457C83.3248 65.1484 84.5858 63.7494 85.8735 62.3222C85.91 62.5366 85.9433 62.721 85.9748 62.9054C86.0646 63.4321 86.1526 63.9604 86.249 64.4855C86.2689 64.5918 86.2407 64.6566 86.1692 64.7314C85.3534 65.5854 84.541 66.441 83.7285 67.2967C83.6936 67.3333 83.6587 67.3731 83.6189 67.4163C83.6454 67.4579 83.667 67.4977 83.6936 67.5343C85.0959 69.5032 86.4982 71.4703 87.9022 73.4375C87.9271 73.4724 87.9636 73.5007 87.9952 73.5322C87.9952 73.5472 87.9952 73.5572 87.9952 73.5671Z" fill="white"></path><path fill-rule="evenodd" clip-rule="evenodd" d="M60.4031 68.4502C60.3682 68.2691 60.3416 68.0016 60.2619 67.754C59.8714 66.5511 58.6386 65.8915 57.3609 66.1889C55.9603 66.5145 54.9584 67.6161 54.8139 69.0466C54.7059 70.105 55.2758 71.1235 56.3358 71.5056C57.1898 71.8147 58.0106 71.6851 58.7732 71.2282C59.7817 70.6217 60.33 69.7212 60.4031 68.4502ZM54.249 72.9212C54.1792 73.4379 54.1144 73.9264 54.0496 74.4149C53.9648 75.0629 53.8801 75.7125 53.797 76.3622C53.7871 76.4386 53.7638 76.4718 53.6824 76.4702C53.0427 76.4668 52.403 76.4685 51.765 76.4668C51.7501 76.4668 51.7351 76.4585 51.7019 76.4486C51.7401 76.1428 51.7783 75.8355 51.8182 75.5281C51.9594 74.4515 52.1007 73.3765 52.2435 72.2998C52.408 71.0703 52.5376 69.8342 52.747 68.6113C53.1175 66.4481 54.9534 64.5839 57.1084 64.1187C58.3578 63.8495 59.5524 63.9741 60.644 64.6769C61.7323 65.3781 62.3553 66.3949 62.4982 67.6743C62.6993 69.4836 62.033 70.9856 60.7487 72.2267C59.9046 73.0425 58.8961 73.5609 57.7314 73.7354C56.5318 73.9165 55.4037 73.7154 54.3918 73.0093C54.352 72.9844 54.3138 72.9611 54.249 72.9212Z" fill="white"></path><path fill-rule="evenodd" clip-rule="evenodd" d="M53.2068 62.6386C52.4891 63.1719 51.7979 63.687 51.1051 64.2037C50.9937 64.0276 50.8924 63.8515 50.7761 63.687C50.4754 63.2666 50.1015 62.951 49.5566 62.9127C49.1046 62.8812 48.7175 63.0307 48.4085 63.363C48.1327 63.6621 48.0978 64.0858 48.3536 64.423C48.6378 64.7935 48.9468 65.1458 49.2641 65.4897C49.7892 66.0596 50.3375 66.6062 50.8592 67.1794C51.3343 67.6995 51.7115 68.2843 51.8295 68.9954C51.969 69.8411 51.7996 70.647 51.3991 71.3913C50.6581 72.767 49.4918 73.5662 47.9516 73.8154C47.272 73.9251 46.5925 73.9035 45.9295 73.7091C45.049 73.4499 44.4359 72.8733 44.0421 72.0576C43.9025 71.7701 43.7962 71.4661 43.6699 71.157C44.4409 70.745 45.1902 70.3429 45.9495 69.9375C45.9761 70.0006 45.9943 70.0538 46.0193 70.1036C46.1489 70.3628 46.2552 70.6386 46.4147 70.8779C46.8915 71.5857 47.6591 71.8017 48.44 71.4511C48.6411 71.3614 48.8338 71.2351 48.9983 71.0889C49.5017 70.642 49.5948 70.0222 49.2226 69.4607C49.0083 69.1383 48.7408 68.8492 48.4816 68.5601C47.8602 67.8656 47.2122 67.1977 46.6058 66.4949C46.1871 66.0098 45.903 65.4448 45.8116 64.7952C45.7135 64.0858 45.8548 63.4178 46.2236 62.8214C47.1408 61.3377 48.4733 60.5651 50.2361 60.6299C51.2413 60.6664 52.0405 61.1366 52.6619 61.9175C52.8463 62.1468 53.0191 62.3877 53.2068 62.6386Z" fill="white"></path><path fill-rule="evenodd" clip-rule="evenodd" d="M70.2336 70.6015C70.1173 71.4953 70.006 72.3444 69.8914 73.1934C69.8847 73.2366 69.8515 73.2947 69.815 73.3113C68.0804 74.1155 65.7958 74.0025 64.3703 72.3842C63.6043 71.5153 63.2837 70.4835 63.3318 69.3354C63.4432 66.6787 65.6463 64.3576 68.2814 64.0336C69.8199 63.8442 71.1707 64.2596 72.2141 65.4559C72.9236 66.27 73.2526 67.2436 73.2044 68.3169C73.1728 69.0264 73.0615 69.7325 72.9734 70.4386C72.8488 71.4389 72.7126 72.4374 72.5797 73.436C72.5747 73.4708 72.568 73.5074 72.5597 73.5523C71.8735 73.5523 71.1907 73.5523 70.4845 73.5523C70.5128 73.323 70.5377 73.0987 70.5659 72.8744C70.7155 71.7213 70.8816 70.5682 71.0129 69.4135C71.0943 68.6941 71.0428 67.9796 70.7138 67.3117C70.3632 66.6039 69.7767 66.2284 69.0042 66.147C67.4058 65.9776 65.8855 67.0891 65.5449 68.6609C65.319 69.6993 65.6745 70.6945 66.502 71.2445C67.3078 71.7811 68.1717 71.7828 69.049 71.4355C69.4943 71.2561 69.8731 70.977 70.2336 70.6015Z" fill="white"></path><path fill-rule="evenodd" clip-rule="evenodd" d="M78.9752 64.2368C78.8805 64.9563 78.7875 65.6657 78.6911 66.3885C78.2525 66.3885 77.8221 66.3851 77.3918 66.3901C77.0429 66.3935 76.7256 66.6178 76.6209 66.9434C76.5794 67.0713 76.5644 67.2076 76.5478 67.3405C76.3301 68.9937 76.1125 70.6452 75.8965 72.2984C75.8417 72.7154 75.7885 73.1324 75.7337 73.5544C75.0142 73.5544 74.3031 73.5544 73.5737 73.5544C73.6136 73.2371 73.6518 72.9297 73.6917 72.6224C73.8329 71.5507 73.9725 70.4807 74.1154 69.4107C74.2383 68.4836 74.348 67.5548 74.4925 66.6327C74.6869 65.3949 75.9181 64.2967 77.1659 64.2418C77.7607 64.2152 78.3588 64.2368 78.9752 64.2368Z" fill="white"></path><path d="M90.5427 73.5544V72.642H90.5377L90.1804 73.5544H90.0657L89.7084 72.642H89.7034V73.5544H89.5239V72.4625H89.8014L90.1272 73.2918L90.448 72.4625H90.7238V73.5544H90.5427ZM88.9555 72.6071V73.5544H88.776V72.6071H88.4336V72.4608H89.2978V72.6071H88.9555" fill="white"></path><path d="M56.1015 61.1028H56.6367L56.5104 60.2917L56.1015 61.1028ZM56.7214 61.628H55.8306L55.5481 62.1831H54.9165L56.3093 59.5821H56.9159L57.3896 62.1831H56.8045L56.7214 61.628Z" fill="white"></path><path d="M59.9099 60.1039H59.5924L59.4861 60.7039H59.8035C59.9946 60.7039 60.1475 60.5776 60.1475 60.3399C60.1475 60.1854 60.0511 60.1039 59.9099 60.1039ZM59.1404 59.5804H59.9747C60.4101 59.5804 60.7159 59.8413 60.7159 60.2884C60.7159 60.8502 60.3187 61.2291 59.752 61.2291H59.393L59.2251 62.1831H58.6816L59.1404 59.5804Z" fill="white"></path><path d="M62.5612 61.1028H63.0964L62.9701 60.2917L62.5612 61.1028ZM63.1812 61.628H62.2903L62.0078 62.1831H61.3762L62.769 59.5821H63.3773L63.851 62.1831H63.2659L63.1812 61.628Z" fill="white"></path><path d="M66.7053 62.0905C66.5225 62.1752 66.3197 62.2251 66.117 62.2251C65.4289 62.2251 64.9951 61.7082 64.9951 61.0617C64.9951 60.2357 65.6915 59.5393 66.5175 59.5393C66.7236 59.5393 66.9114 59.5891 67.0643 59.6739L66.9879 60.2972C66.8732 60.1709 66.6887 60.0828 66.4593 60.0828C65.9857 60.0828 65.5635 60.5116 65.5635 61.0085C65.5635 61.3874 65.8012 61.6816 66.1751 61.6816C66.4045 61.6816 66.6272 61.5935 66.7751 61.4705L66.7053 62.0905Z" fill="white"></path><path d="M70.0253 61.1344H68.8935L68.709 62.1831H68.1655L68.6242 59.5821H69.1677L68.9849 60.6108H70.1167L70.2996 59.5821H70.843L70.3843 62.1831H69.8408L70.0253 61.1344Z" fill="white"></path><path d="M72.0149 62.1831L72.4736 59.5821H73.9162L73.8248 60.1056H72.9257L72.8343 60.6108H73.6603L73.5689 61.1344H72.7429L72.6514 61.6579H73.5506L73.4592 62.1814L72.0149 62.1831Z" fill="white"></path></g><path d="M135.408 91.0315H3.21826V117.179H135.408V91.0315Z" fill="#1B3139"></path><path d="M57.5232 102.053C57.0453 102.053 56.6255 101.966 56.2638 101.791C55.9086 101.617 55.6277 101.368 55.421 101.046C55.2208 100.723 55.1175 100.338 55.111 99.8927H56.196C56.2025 100.235 56.3187 100.529 56.5448 100.774C56.7772 101.013 57.1002 101.133 57.5135 101.133C57.8945 101.133 58.1916 101.046 58.4047 100.871C58.6178 100.69 58.7244 100.458 58.7244 100.174C58.7244 99.9347 58.6598 99.7378 58.5307 99.5828C58.4079 99.4213 58.2142 99.2792 57.9494 99.1565C57.6846 99.0273 57.3423 98.895 56.9226 98.7593C56.3607 98.5785 55.9474 98.3299 55.6826 98.0134C55.4178 97.6905 55.2854 97.2966 55.2854 96.8316C55.2854 96.2955 55.4792 95.8628 55.8666 95.5335C56.2541 95.2041 56.7869 95.0394 57.465 95.0394C58.1238 95.0394 58.6534 95.2106 59.0538 95.5528C59.4542 95.8887 59.6608 96.3569 59.6738 96.9575H58.5791C58.5791 96.796 58.5339 96.641 58.4435 96.4925C58.353 96.3375 58.2239 96.2116 58.056 96.1147C57.8881 96.0114 57.6814 95.9597 57.436 95.9597C57.1325 95.9532 56.8774 96.0275 56.6707 96.1825C56.464 96.3311 56.3607 96.5345 56.3607 96.7928C56.3607 97.1093 56.4866 97.3579 56.7385 97.5387C56.9904 97.7131 57.4005 97.8939 57.9688 98.0812C58.324 98.1975 58.6372 98.3396 58.9085 98.5075C59.1862 98.6689 59.4025 98.8788 59.5575 99.1371C59.719 99.389 59.7997 99.7119 59.7997 100.106C59.7997 100.468 59.7093 100.797 59.5284 101.094C59.3476 101.385 59.0861 101.617 58.7438 101.791C58.4079 101.966 58.0011 102.053 57.5232 102.053ZM61.0262 104.068V97.1319H61.9174L61.9949 97.8681H62.053C62.1822 97.6291 62.376 97.4289 62.6343 97.2675C62.8991 97.0996 63.2123 97.0156 63.5739 97.0156C63.9485 97.0156 64.2908 97.1125 64.6008 97.3062C64.9108 97.4935 65.1562 97.7745 65.337 98.149C65.5243 98.5172 65.618 98.9789 65.618 99.5343C65.618 100.083 65.5211 100.545 65.3273 100.92C65.1401 101.294 64.885 101.578 64.5621 101.772C64.2391 101.959 63.8775 102.053 63.4771 102.053C63.1219 102.053 62.8248 101.982 62.5858 101.84C62.3469 101.698 62.1693 101.536 62.053 101.356V104.068H61.0262ZM63.3027 101.075C63.6644 101.075 63.9647 100.945 64.2036 100.687C64.449 100.429 64.5717 100.041 64.5717 99.5246C64.5717 99.008 64.449 98.6237 64.2036 98.3718C63.9647 98.12 63.6644 97.994 63.3027 97.994C62.9346 97.994 62.6278 98.1232 62.3824 98.3815C62.1435 98.6334 62.024 99.0177 62.024 99.5343C62.024 100.045 62.1435 100.429 62.3824 100.687C62.6278 100.945 62.9346 101.075 63.3027 101.075ZM68.6366 102.053C68.2556 102.053 67.9359 101.988 67.6776 101.859C67.4192 101.724 67.2255 101.546 67.0963 101.326C66.9672 101.1 66.9026 100.855 66.9026 100.59C66.9026 100.119 67.0737 99.7507 67.416 99.4859C67.7648 99.2211 68.2556 99.0887 68.8885 99.0887H70.1285V98.9821C70.1285 98.2588 69.7926 97.8972 69.121 97.8972C68.8433 97.8972 68.6076 97.9585 68.4138 98.0812C68.2265 98.1975 68.1006 98.388 68.036 98.6528H67.0092C67.0608 98.149 67.2772 97.7519 67.6582 97.4612C68.0457 97.1642 68.5333 97.0156 69.121 97.0156C69.8314 97.0156 70.348 97.19 70.671 97.5387C70.9939 97.8875 71.1553 98.3686 71.1553 98.9821V101.937H70.2835L70.1963 101.23H70.1285C69.9864 101.456 69.8088 101.649 69.5957 101.811C69.3825 101.972 69.0629 102.053 68.6366 102.053ZM68.8304 101.191C69.2501 101.191 69.5634 101.065 69.77 100.813C69.9832 100.555 70.0994 100.229 70.1188 99.8346H68.995C68.6269 99.8346 68.3654 99.896 68.2104 100.019C68.0618 100.135 67.9876 100.3 67.9876 100.513C67.9876 100.726 68.0618 100.894 68.2104 101.016C68.3654 101.133 68.572 101.191 68.8304 101.191ZM72.7209 101.937V101.046H73.893V98.3428C73.893 98.1297 73.7897 98.0231 73.583 98.0231H72.8177V97.1319H73.9705C74.2353 97.1319 74.4517 97.2094 74.6196 97.3644C74.7875 97.5129 74.8715 97.7228 74.8715 97.994V98.1103H74.9199C74.9909 97.7486 75.1427 97.4774 75.3752 97.2966C75.6141 97.1093 75.9597 97.0156 76.4117 97.0156H77.1577V98.1006H76.1114C75.7304 98.1006 75.4365 98.233 75.2299 98.4978C75.0232 98.7626 74.9199 99.079 74.9199 99.4471V101.046H76.4117V101.937H72.7209ZM78.7329 101.937V94.9619H79.7598V99.1468L81.6003 97.1319H82.8888L80.8835 99.2631V99.3406L83.1503 101.937H81.9006L79.7598 99.4665V101.937H78.7329ZM14.4412 111.937V105.156H16.0687C17.1601 105.156 17.9706 105.459 18.5002 106.066C19.0297 106.667 19.2945 107.494 19.2945 108.546C19.2945 109.599 19.0297 110.429 18.5002 111.036C17.9706 111.636 17.1601 111.937 16.0687 111.937H14.4412ZM15.468 110.987H16.0299C16.8178 110.987 17.3861 110.768 17.7349 110.329C18.0836 109.883 18.258 109.289 18.258 108.546C18.258 107.804 18.0836 107.213 17.7349 106.773C17.3861 106.328 16.8178 106.105 16.0299 106.105H15.468V110.987ZM22.6619 112.053C22.1969 112.053 21.7868 111.95 21.4316 111.743C21.0764 111.53 20.7987 111.236 20.5985 110.861C20.3983 110.487 20.2982 110.051 20.2982 109.554C20.2982 109.05 20.3951 108.608 20.5888 108.227C20.789 107.845 21.0668 107.548 21.422 107.335C21.7836 107.122 22.2002 107.016 22.6716 107.016C23.1366 107.016 23.537 107.122 23.8728 107.335C24.2087 107.542 24.467 107.82 24.6478 108.168C24.8351 108.517 24.9288 108.901 24.9288 109.321C24.9288 109.386 24.9288 109.457 24.9288 109.534C24.9288 109.605 24.9255 109.686 24.9191 109.777H21.3057C21.338 110.222 21.4833 110.561 21.7416 110.794C22 111.02 22.3035 111.133 22.6522 111.133C22.9558 111.133 23.1947 111.071 23.3691 110.949C23.5499 110.819 23.6823 110.645 23.7663 110.426H24.8028C24.6866 110.884 24.4444 111.272 24.0763 111.588C23.7082 111.898 23.2367 112.053 22.6619 112.053ZM22.6619 107.907C22.3455 107.907 22.0645 108.004 21.8191 108.197C21.5737 108.385 21.4155 108.65 21.3445 108.992H23.9019C23.8761 108.669 23.7501 108.407 23.5241 108.207C23.2981 108.007 23.0107 107.907 22.6619 107.907ZM27.7924 111.937L25.7096 107.132H26.8721L28.4124 110.852L29.9624 107.132H31.1152L29.0227 111.937H27.7924ZM34.2791 112.053C33.8141 112.053 33.404 111.95 33.0488 111.743C32.6936 111.53 32.4159 111.236 32.2157 110.861C32.0155 110.487 31.9154 110.051 31.9154 109.554C31.9154 109.05 32.0123 108.608 32.206 108.227C32.4062 107.845 32.6839 107.548 33.0391 107.335C33.4008 107.122 33.8173 107.016 34.2888 107.016C34.7538 107.016 35.1542 107.122 35.49 107.335C35.8258 107.542 36.0842 107.82 36.265 108.168C36.4523 108.517 36.5459 108.901 36.5459 109.321C36.5459 109.386 36.5459 109.457 36.5459 109.534C36.5459 109.605 36.5427 109.686 36.5363 109.777H32.9229C32.9552 110.222 33.1005 110.561 33.3588 110.794C33.6171 111.02 33.9207 111.133 34.2694 111.133C34.573 111.133 34.8119 111.071 34.9863 110.949C35.1671 110.819 35.2995 110.645 35.3835 110.426H36.42C36.3038 110.884 36.0616 111.272 35.6935 111.588C35.3253 111.898 34.8539 112.053 34.2791 112.053ZM34.2791 107.907C33.9627 107.907 33.6817 108.004 33.4363 108.197C33.1909 108.385 33.0327 108.65 32.9616 108.992H35.5191C35.4933 108.669 35.3673 108.407 35.1413 108.207C34.9152 108.007 34.6279 107.907 34.2791 107.907ZM37.7821 111.937V111.046H39.3902V106.173C39.3902 105.96 39.2869 105.853 39.0802 105.853H37.9177V104.962H39.2643C39.6389 104.962 39.923 105.062 40.1168 105.262C40.317 105.456 40.4171 105.74 40.4171 106.115V111.046H42.0348V111.937H37.7821ZM45.8382 112.053C45.3796 112.053 44.9695 111.95 44.6079 111.743C44.2462 111.536 43.9621 111.246 43.7554 110.871C43.5487 110.49 43.4454 110.045 43.4454 109.534C43.4454 109.024 43.5487 108.582 43.7554 108.207C43.9621 107.826 44.2462 107.532 44.6079 107.326C44.9695 107.119 45.3829 107.016 45.8479 107.016C46.3129 107.016 46.7229 107.119 47.0781 107.326C47.4398 107.532 47.7207 107.826 47.9209 108.207C48.1276 108.582 48.2309 109.024 48.2309 109.534C48.2309 110.045 48.1276 110.49 47.9209 110.871C47.7143 111.246 47.4301 111.536 47.0685 111.743C46.7133 111.95 46.3032 112.053 45.8382 112.053ZM45.8382 111.075C46.0836 111.075 46.3096 111.02 46.5163 110.91C46.7229 110.8 46.8876 110.632 47.0103 110.406C47.1395 110.174 47.2041 109.883 47.2041 109.534C47.2041 109.179 47.1395 108.888 47.0103 108.662C46.8876 108.436 46.7229 108.269 46.5163 108.159C46.3161 108.049 46.0933 107.994 45.8479 107.994C45.6024 107.994 45.3764 108.049 45.1697 108.159C44.9631 108.269 44.7952 108.436 44.666 108.662C44.5433 108.888 44.482 109.179 44.482 109.534C44.482 110.064 44.6143 110.455 44.8791 110.706C45.1504 110.952 45.4701 111.075 45.8382 111.075ZM49.409 114.068V107.132H50.3002L50.3777 107.868H50.4359C50.565 107.629 50.7588 107.429 51.0171 107.267C51.2819 107.1 51.5951 107.016 51.9568 107.016C52.3313 107.016 52.6736 107.112 52.9836 107.306C53.2936 107.494 53.539 107.774 53.7198 108.149C53.9071 108.517 54.0008 108.979 54.0008 109.534C54.0008 110.083 53.9039 110.545 53.7102 110.92C53.5229 111.294 53.2678 111.578 52.9449 111.772C52.622 111.959 52.2603 112.053 51.8599 112.053C51.5047 112.053 51.2076 111.982 50.9687 111.84C50.7297 111.698 50.5521 111.536 50.4359 111.356V114.068H49.409ZM51.6855 111.075C52.0472 111.075 52.3475 110.945 52.5864 110.687C52.8318 110.429 52.9546 110.041 52.9546 109.525C52.9546 109.008 52.8318 108.624 52.5864 108.372C52.3475 108.12 52.0472 107.994 51.6855 107.994C51.3174 107.994 51.0106 108.123 50.7652 108.382C50.5263 108.633 50.4068 109.018 50.4068 109.534C50.4068 110.045 50.5263 110.429 50.7652 110.687C51.0106 110.945 51.3174 111.075 51.6855 111.075ZM57.5135 112.053C57.0485 112.053 56.6384 111.95 56.2832 111.743C55.928 111.53 55.6503 111.236 55.4501 110.861C55.2499 110.487 55.1498 110.051 55.1498 109.554C55.1498 109.05 55.2467 108.608 55.4404 108.227C55.6406 107.845 55.9183 107.548 56.2735 107.335C56.6352 107.122 57.0517 107.016 57.5232 107.016C57.9882 107.016 58.3886 107.122 58.7244 107.335C59.0602 107.542 59.3186 107.82 59.4994 108.168C59.6867 108.517 59.7803 108.901 59.7803 109.321C59.7803 109.386 59.7803 109.457 59.7803 109.534C59.7803 109.605 59.7771 109.686 59.7706 109.777H56.1573C56.1896 110.222 56.3349 110.561 56.5932 110.794C56.8515 111.02 57.1551 111.133 57.5038 111.133C57.8073 111.133 58.0463 111.071 58.2207 110.949C58.4015 110.819 58.5339 110.645 58.6178 110.426H59.6544C59.5381 110.884 59.2959 111.272 58.9278 111.588C58.5597 111.898 58.0883 112.053 57.5135 112.053ZM57.5135 107.907C57.197 107.907 56.9161 108.004 56.6707 108.197C56.4253 108.385 56.2671 108.65 56.196 108.992H58.7535C58.7276 108.669 58.6017 108.407 58.3757 108.207C58.1496 108.007 57.8622 107.907 57.5135 107.907ZM61.1037 111.937V111.046H62.2758V108.343C62.2758 108.13 62.1725 108.023 61.9659 108.023H61.2006V107.132H62.3533C62.6181 107.132 62.8345 107.209 63.0024 107.364C63.1703 107.513 63.2543 107.723 63.2543 107.994V108.11H63.3027C63.3737 107.749 63.5255 107.477 63.758 107.297C63.997 107.109 64.3425 107.016 64.7945 107.016H65.5405V108.101H64.4942C64.1132 108.101 63.8194 108.233 63.6127 108.498C63.406 108.763 63.3027 109.079 63.3027 109.447V111.046H64.7945V111.937H61.1037ZM72.2462 111.937L74.2708 105.156H75.4914L77.5161 111.937H76.402L75.9467 110.309H73.8155L73.3602 111.937H72.2462ZM74.8521 106.609L74.048 109.486H75.7142L74.9102 106.609H74.8521ZM80.7285 112.053C80.0956 112.053 79.5918 111.904 79.2173 111.607C78.8427 111.31 78.6296 110.916 78.5779 110.426H79.6338C79.6726 110.652 79.7856 110.836 79.9729 110.978C80.1666 111.12 80.4217 111.191 80.7382 111.191C81.0417 111.191 81.2742 111.129 81.4357 111.007C81.6036 110.878 81.6875 110.729 81.6875 110.561C81.6875 110.316 81.5874 110.148 81.3872 110.057C81.1935 109.967 80.9061 109.899 80.5251 109.854C80.1957 109.815 79.8954 109.741 79.6241 109.631C79.3593 109.515 79.1495 109.36 78.9945 109.166C78.8395 108.966 78.762 108.717 78.762 108.42C78.762 108 78.9266 107.661 79.256 107.403C79.5854 107.145 80.0439 107.016 80.6316 107.016C81.2193 107.016 81.6746 107.148 81.9975 107.413C82.3204 107.678 82.5077 108.039 82.5594 108.498H81.5713C81.5454 108.304 81.4453 108.152 81.271 108.042C81.0966 107.926 80.8803 107.868 80.6219 107.868C80.3571 107.868 80.1472 107.92 79.9923 108.023C79.8373 108.12 79.7598 108.249 79.7598 108.411C79.7598 108.759 80.1343 108.972 80.8835 109.05C81.2387 109.089 81.5551 109.157 81.8328 109.253C82.1105 109.344 82.3301 109.489 82.4916 109.689C82.653 109.883 82.7338 110.158 82.7338 110.513C82.7402 110.803 82.6563 111.065 82.4819 111.297C82.314 111.53 82.0782 111.714 81.7747 111.85C81.4776 111.985 81.1289 112.053 80.7285 112.053ZM86.5371 112.053C85.9042 112.053 85.4004 111.904 85.0259 111.607C84.6513 111.31 84.4382 110.916 84.3865 110.426H85.4424C85.4812 110.652 85.5942 110.836 85.7815 110.978C85.9752 111.12 86.2303 111.191 86.5468 111.191C86.8503 111.191 87.0828 111.129 87.2442 111.007C87.4122 110.878 87.4961 110.729 87.4961 110.561C87.4961 110.316 87.396 110.148 87.1958 110.057C87.0021 109.967 86.7147 109.899 86.3336 109.854C86.0043 109.815 85.704 109.741 85.4327 109.631C85.1679 109.515 84.958 109.36 84.803 109.166C84.648 108.966 84.5705 108.717 84.5705 108.42C84.5705 108 84.7352 107.661 85.0646 107.403C85.394 107.145 85.8525 107.016 86.4402 107.016C87.0279 107.016 87.4832 107.148 87.8061 107.413C88.129 107.678 88.3163 108.039 88.368 108.498H87.3799C87.354 108.304 87.2539 108.152 87.0796 108.042C86.9052 107.926 86.6888 107.868 86.4305 107.868C86.1657 107.868 85.9558 107.92 85.8008 108.023C85.6458 108.12 85.5683 108.249 85.5683 108.411C85.5683 108.759 85.9429 108.972 86.6921 109.05C87.0473 109.089 87.3637 109.157 87.6414 109.253C87.9191 109.344 88.1387 109.489 88.3002 109.689C88.4616 109.883 88.5423 110.158 88.5423 110.513C88.5488 110.803 88.4648 111.065 88.2905 111.297C88.1226 111.53 87.8868 111.714 87.5833 111.85C87.2862 111.985 86.9375 112.053 86.5371 112.053ZM92.3069 112.053C91.8484 112.053 91.4383 111.95 91.0766 111.743C90.715 111.536 90.4308 111.246 90.2241 110.871C90.0175 110.49 89.9142 110.045 89.9142 109.534C89.9142 109.024 90.0175 108.582 90.2241 108.207C90.4308 107.826 90.715 107.532 91.0766 107.326C91.4383 107.119 91.8516 107.016 92.3166 107.016C92.7816 107.016 93.1917 107.119 93.5469 107.326C93.9085 107.532 94.1895 107.826 94.3897 108.207C94.5963 108.582 94.6997 109.024 94.6997 109.534C94.6997 110.045 94.5963 110.49 94.3897 110.871C94.183 111.246 93.8989 111.536 93.5372 111.743C93.182 111.95 92.7719 112.053 92.3069 112.053ZM92.3069 111.075C92.5523 111.075 92.7784 111.02 92.985 110.91C93.1917 110.8 93.3564 110.632 93.4791 110.406C93.6082 110.174 93.6728 109.883 93.6728 109.534C93.6728 109.179 93.6082 108.888 93.4791 108.662C93.3564 108.436 93.1917 108.269 92.985 108.159C92.7848 108.049 92.562 107.994 92.3166 107.994C92.0712 107.994 91.8452 108.049 91.6385 108.159C91.4318 108.269 91.2639 108.436 91.1348 108.662C91.012 108.888 90.9507 109.179 90.9507 109.534C90.9507 110.064 91.0831 110.455 91.3479 110.706C91.6191 110.952 91.9388 111.075 92.3069 111.075ZM98.1833 112.053C97.7377 112.053 97.3373 111.95 96.9821 111.743C96.6334 111.536 96.3589 111.246 96.1587 110.871C95.9585 110.49 95.8584 110.045 95.8584 109.534C95.8584 109.024 95.9585 108.582 96.1587 108.207C96.3653 107.833 96.643 107.542 96.9918 107.335C97.3405 107.122 97.7377 107.016 98.1833 107.016C98.7968 107.016 99.2909 107.171 99.6655 107.481C100.047 107.784 100.289 108.204 100.392 108.74H99.3167C99.2522 108.507 99.1198 108.323 98.9196 108.188C98.7258 108.052 98.4772 107.984 98.1736 107.984C97.9541 107.984 97.7442 108.042 97.544 108.159C97.3502 108.275 97.192 108.449 97.0693 108.682C96.953 108.908 96.8949 109.192 96.8949 109.534C96.8949 109.87 96.953 110.154 97.0693 110.387C97.192 110.619 97.3502 110.797 97.544 110.92C97.7442 111.036 97.9541 111.094 98.1736 111.094C98.4836 111.094 98.7323 111.026 98.9196 110.891C99.1068 110.755 99.2392 110.568 99.3167 110.329H100.392C100.263 110.858 100.011 111.278 99.6364 111.588C99.2618 111.898 98.7775 112.053 98.1833 112.053ZM103.827 106.396C103.601 106.396 103.411 106.325 103.256 106.183C103.107 106.034 103.033 105.853 103.033 105.64C103.033 105.427 103.107 105.249 103.256 105.107C103.411 104.965 103.601 104.894 103.827 104.894C104.06 104.894 104.25 104.965 104.399 105.107C104.554 105.249 104.631 105.427 104.631 105.64C104.631 105.853 104.554 106.034 104.399 106.183C104.25 106.325 104.06 106.396 103.827 106.396ZM101.899 111.937V111.046H103.411V108.343C103.411 108.13 103.307 108.023 103.101 108.023H102.035V107.132H103.285C103.685 107.132 103.976 107.226 104.157 107.413C104.344 107.594 104.438 107.884 104.438 108.285V111.046H105.949V111.937H101.899ZM109.297 112.053C108.916 112.053 108.596 111.988 108.338 111.859C108.079 111.724 107.886 111.546 107.756 111.326C107.627 111.1 107.563 110.855 107.563 110.59C107.563 110.119 107.734 109.751 108.076 109.486C108.425 109.221 108.916 109.089 109.549 109.089H110.789V108.982C110.789 108.259 110.453 107.897 109.781 107.897C109.503 107.897 109.268 107.959 109.074 108.081C108.887 108.197 108.761 108.388 108.696 108.653H107.669C107.721 108.149 107.937 107.752 108.318 107.461C108.706 107.164 109.193 107.016 109.781 107.016C110.492 107.016 111.008 107.19 111.331 107.539C111.654 107.887 111.815 108.369 111.815 108.982V111.937H110.944L110.856 111.23H110.789C110.647 111.456 110.469 111.649 110.256 111.811C110.043 111.972 109.723 112.053 109.297 112.053ZM109.491 111.191C109.91 111.191 110.224 111.065 110.43 110.813C110.643 110.555 110.76 110.229 110.779 109.835H109.655C109.287 109.835 109.026 109.896 108.871 110.019C108.722 110.135 108.648 110.3 108.648 110.513C108.648 110.726 108.722 110.894 108.871 111.016C109.026 111.133 109.232 111.191 109.491 111.191ZM116.064 111.937C115.593 111.937 115.218 111.824 114.941 111.598C114.663 111.365 114.524 110.955 114.524 110.367V108.004H113.313V107.132H114.03C114.359 107.132 114.553 106.97 114.611 106.648L114.757 105.873H115.551V107.132H117.45V108.004H115.551V110.348C115.551 110.6 115.606 110.778 115.716 110.881C115.832 110.978 116.029 111.026 116.307 111.026H117.43V111.937H116.064ZM121.408 112.053C120.943 112.053 120.533 111.95 120.178 111.743C119.823 111.53 119.545 111.236 119.345 110.861C119.144 110.487 119.044 110.051 119.044 109.554C119.044 109.05 119.141 108.608 119.335 108.227C119.535 107.845 119.813 107.548 120.168 107.335C120.53 107.122 120.946 107.016 121.418 107.016C121.883 107.016 122.283 107.122 122.619 107.335C122.955 107.542 123.213 107.82 123.394 108.168C123.581 108.517 123.675 108.901 123.675 109.321C123.675 109.386 123.675 109.457 123.675 109.534C123.675 109.605 123.672 109.686 123.665 109.777H120.052C120.084 110.222 120.229 110.561 120.488 110.794C120.746 111.02 121.05 111.133 121.398 111.133C121.702 111.133 121.941 111.071 122.115 110.949C122.296 110.819 122.428 110.645 122.512 110.426H123.549C123.433 110.884 123.19 111.272 122.822 111.588C122.454 111.898 121.983 112.053 121.408 112.053ZM121.408 107.907C121.092 107.907 120.811 108.004 120.565 108.197C120.32 108.385 120.162 108.65 120.091 108.992H122.648C122.622 108.669 122.496 108.407 122.27 108.207C122.044 108.007 121.757 107.907 121.408 107.907Z" fill="white"></path><g clip-path="url(#clip3_852_3318)"><path fill-rule="evenodd" clip-rule="evenodd" d="M0.499756 28.3872C0.499756 17.1874 31.3627 7.50537 69.3956 7.50537C107.436 7.50537 138.299 17.1874 138.269 28.3872V149.175C138.269 149.967 138.062 150.747 137.669 151.435C137.276 152.124 136.709 152.697 136.026 153.1L69.4404 191.723L2.7427 153.1C2.05943 152.697 1.49309 152.124 1.09969 151.435C0.706293 150.747 0.499477 149.967 0.499756 149.175V28.3872ZM69.4749 186.764L69.423 186.794L69.4752 186.764L69.4749 186.764ZM133.845 149.521L69.4749 186.764L5.05365 149.492C4.99475 149.458 4.94585 149.409 4.91183 149.35C4.87781 149.291 4.85987 149.224 4.85982 149.156V28.71C4.74055 25.6238 10.1301 21.4642 22.1691 18.0053H22.2809C22.4926 17.949 22.7104 17.919 22.9295 17.9159C23.572 17.9159 24.1882 18.1711 24.6426 18.6255C25.0969 19.0798 25.3522 19.696 25.3522 20.3386C25.4515 21.6688 25.8509 22.0143 26.5112 22.5857C26.8003 22.8358 27.1395 23.1293 27.5254 23.5677C28.41 24.5724 29.5065 24.6489 30.7271 24.7341C31.2553 24.7709 31.8067 24.8094 32.3743 24.9254C44.5803 27.2707 56.9865 28.4166 69.4156 28.347H69.4678C81.8969 28.4166 94.303 27.2707 106.509 24.9254C107.077 24.8095 107.629 24.7711 108.157 24.7343C109.378 24.6494 110.476 24.573 111.361 23.5683C111.747 23.1298 112.087 22.8363 112.377 22.586C113.038 22.0148 113.438 21.669 113.539 20.3386C113.541 19.6966 113.796 19.0816 114.25 18.6276C114.704 18.1737 115.319 17.9178 115.961 17.9159C116.183 17.919 116.403 17.949 116.617 18.0053H116.729C128.768 21.4642 134.15 25.6238 134.038 28.71V149.186C134.038 149.254 134.02 149.321 133.986 149.38C133.952 149.438 133.904 149.487 133.845 149.521Z" fill="#1B3139"></path></g><path d="M47.3515 30.7045V29.8158C47.351 29.7829 47.3403 29.7511 47.321 29.7245C47.3017 29.6979 47.2747 29.6779 47.2436 29.6672C47.2125 29.6566 47.1789 29.6557 47.1474 29.6648C47.1158 29.6739 47.0878 29.6925 47.0671 29.718C46.7382 30.1016 46.3287 30.4079 45.8679 30.6153C45.4071 30.8227 44.9062 30.9259 44.401 30.9178C43.859 30.9205 43.3224 30.8105 42.8251 30.5948C42.3279 30.3791 41.8809 30.0623 41.5126 29.6647C40.7404 28.8111 40.3211 27.6962 40.3395 26.5453C40.3145 25.9908 40.4003 25.437 40.5918 24.9161C40.7832 24.3951 41.0766 23.9176 41.4547 23.5113C41.8328 23.1051 42.2881 22.7782 42.794 22.5499C43.2999 22.3216 43.8462 22.1964 44.401 22.1816C44.9019 22.1681 45.3998 22.2636 45.8602 22.4615C46.3206 22.6595 46.7324 22.9552 47.0671 23.3281C47.093 23.3469 47.1241 23.357 47.156 23.357C47.188 23.357 47.2191 23.3469 47.2449 23.3281C47.2761 23.3171 47.3031 23.2966 47.3222 23.2695C47.3414 23.2425 47.3516 23.2101 47.3515 23.177V18.7334H49.1912V30.6778L47.3515 30.7045ZM47.4315 26.5453C47.421 26.0309 47.2589 25.5311 46.9655 25.1085C46.6721 24.6859 46.2604 24.3593 45.7822 24.1697C45.3039 23.9801 44.7803 23.9359 44.277 24.0426C43.7737 24.1494 43.3132 24.4023 42.9531 24.7698C42.593 25.1372 42.3494 25.6028 42.2528 26.1082C42.1563 26.6135 42.211 27.1361 42.4102 27.6104C42.6095 28.0847 42.9443 28.4897 43.3728 28.7745C43.8012 29.0593 44.3042 29.2113 44.8187 29.2114C45.5165 29.1975 46.181 28.9104 46.6696 28.4119C47.1581 27.9134 47.4317 27.2432 47.4315 26.5453V26.5453ZM57.2075 30.7045V29.8158C57.2197 29.7803 57.2183 29.7415 57.2035 29.707C57.1887 29.6725 57.1616 29.6448 57.1275 29.6291C57.1008 29.6126 57.07 29.6039 57.0386 29.6039C57.0072 29.6039 56.9764 29.6126 56.9497 29.6291C56.6233 30.0169 56.2147 30.3273 55.7536 30.5379C55.2925 30.7484 54.7904 30.8539 54.2836 30.8467C53.184 30.7607 52.1574 30.2632 51.4085 29.4535C50.6597 28.6438 50.2437 27.5815 50.2437 26.4786C50.2437 25.3757 50.6597 24.3134 51.4085 23.5037C52.1574 22.694 53.184 22.1965 54.2836 22.1105C54.7846 22.0897 55.284 22.181 55.7453 22.3778C56.2066 22.5747 56.618 22.872 56.9497 23.2481C56.9709 23.2734 56.9991 23.2919 57.0306 23.3014C57.0622 23.3109 57.0959 23.3109 57.1275 23.3014C57.158 23.2893 57.1844 23.2686 57.2033 23.2418C57.2223 23.215 57.233 23.1832 57.2341 23.1503V22.3149H59.056V30.6334L57.2075 30.7045ZM57.2875 26.5453C57.277 26.0309 57.1148 25.5311 56.8214 25.1085C56.528 24.6859 56.1164 24.3593 55.6381 24.1697C55.1598 23.9801 54.6362 23.9359 54.133 24.0426C53.6297 24.1494 53.1691 24.4023 52.809 24.7698C52.4489 25.1372 52.2053 25.6028 52.1088 26.1082C52.0122 26.6135 52.0669 27.1361 52.2662 27.6104C52.4654 28.0847 52.8002 28.4897 53.2287 28.7745C53.6571 29.0593 54.1601 29.2113 54.6746 29.2114C55.3709 29.1952 56.0332 28.9071 56.5198 28.4089C57.0064 27.9106 57.2788 27.2417 57.2786 26.5453H57.2875ZM72.7957 30.7045V29.8158C72.7977 29.7834 72.7893 29.7513 72.7717 29.7241C72.7541 29.6969 72.7282 29.6761 72.6979 29.6647C72.6712 29.6482 72.6404 29.6394 72.6091 29.6394C72.5777 29.6394 72.5469 29.6482 72.5202 29.6647C72.1933 30.052 71.7847 30.362 71.3237 30.5725C70.8627 30.7831 70.3608 30.8888 69.854 30.8822C68.7545 30.7963 67.7278 30.2988 66.9789 29.4891C66.2301 28.6794 65.8141 27.6171 65.8141 26.5142C65.8141 25.4113 66.2301 24.3489 66.9789 23.5392C67.7278 22.7295 68.7545 22.2321 69.854 22.1461C70.355 22.1259 70.8542 22.2175 71.3153 22.4143C71.7765 22.611 72.1881 22.908 72.5202 23.2837C72.5414 23.3089 72.5695 23.3274 72.601 23.3369C72.6326 23.3464 72.6663 23.3464 72.6979 23.337C72.7275 23.3245 72.7526 23.3034 72.77 23.2765C72.7875 23.2495 72.7964 23.218 72.7957 23.1859V22.3505H74.6264V30.6689L72.7957 30.7045ZM72.8846 26.5453C72.8741 26.0309 72.7119 25.5311 72.4185 25.1085C72.1251 24.6859 71.7135 24.3593 71.2352 24.1697C70.7569 23.9801 70.2333 23.9359 69.7301 24.0426C69.2268 24.1494 68.7662 24.4023 68.4061 24.7698C68.046 25.1372 67.8024 25.6028 67.7058 26.1082C67.6093 26.6135 67.664 27.1361 67.8633 27.6104C68.0625 28.0847 68.3973 28.4897 68.8258 28.7745C69.2542 29.0593 69.7572 29.2113 70.2717 29.2114C70.968 29.1952 71.6302 28.9071 72.1169 28.4089C72.6035 27.9106 72.8758 27.2417 72.8757 26.5453H72.8846ZM77.8614 29.8691V30.7045H76.0217V18.7601H77.8614V23.2748C77.8613 23.3079 77.8716 23.3402 77.8907 23.3673C77.9098 23.3943 77.9368 23.4148 77.968 23.4259C77.9953 23.4406 78.0259 23.4484 78.0569 23.4484C78.0879 23.4484 78.1185 23.4406 78.1458 23.4259C78.4748 23.0423 78.8842 22.7359 79.345 22.5286C79.8059 22.3212 80.3067 22.2179 80.8119 22.2261C81.3532 22.2228 81.8893 22.3316 82.3864 22.5458C82.8835 22.7599 83.3309 23.0747 83.7003 23.4703C84.471 24.3248 84.8901 25.4391 84.8734 26.5897C84.8996 27.1449 84.8148 27.6997 84.6238 28.2216C84.4329 28.7436 84.1398 29.2222 83.7615 29.6294C83.3833 30.0366 82.9275 30.3643 82.4211 30.5931C81.9146 30.822 81.3675 30.9475 80.8119 30.9622C80.3102 30.9759 79.8115 30.8795 79.3509 30.6799C78.8903 30.4804 78.4789 30.1824 78.1458 29.8069C78.113 29.7734 78.0683 29.7542 78.0214 29.7536H77.968C77.9402 29.7607 77.9147 29.7751 77.8944 29.7955C77.8741 29.8158 77.8596 29.8412 77.8525 29.8691H77.8614ZM80.3942 29.247C80.9237 29.2576 81.4443 29.1103 81.8897 28.8238C82.3351 28.5374 82.6852 28.1248 82.8952 27.6386C83.1052 27.1525 83.1656 26.6148 83.0688 26.0941C82.9721 25.5735 82.7224 25.0935 82.3518 24.7152C81.9811 24.337 81.5062 24.0777 80.9876 23.9705C80.469 23.8632 79.9303 23.9128 79.44 24.1129C78.9497 24.313 78.5301 24.6547 78.2347 25.0942C77.9393 25.5337 77.7815 26.0513 77.7814 26.5808C77.7812 27.2773 78.0536 27.9462 78.5402 28.4444C79.0268 28.9427 79.6891 29.2307 80.3854 29.247H80.3942ZM90.1702 24.0924C90.3179 24.077 90.4668 24.077 90.6146 24.0924V22.2083C90.5112 22.1966 90.4069 22.1966 90.3035 22.2083C89.8427 22.2032 89.3885 22.3175 88.9851 22.5403C88.5816 22.763 88.2428 23.0865 88.0017 23.4792C87.9837 23.5086 87.9567 23.5314 87.9247 23.5443C87.8926 23.5571 87.8573 23.5592 87.824 23.5503C87.7911 23.5408 87.7621 23.521 87.7413 23.4938C87.7205 23.4666 87.709 23.4334 87.7084 23.3992V22.3772H85.8865V30.6956H87.7262V27.0518C87.7084 25.1855 88.6416 24.0924 90.1524 24.0924H90.1702ZM91.7699 22.386V30.7045H93.6273V22.386H91.7699ZM92.6586 18.7601C92.4354 18.7601 92.2172 18.8263 92.0316 18.9503C91.8459 19.0743 91.7013 19.2506 91.6159 19.4568C91.5304 19.6631 91.5081 19.89 91.5516 20.1089C91.5952 20.3279 91.7027 20.529 91.8605 20.6868C92.0184 20.8447 92.2195 20.9522 92.4384 20.9957C92.6574 21.0393 92.8843 21.0169 93.0905 20.9315C93.2968 20.8461 93.4731 20.7014 93.5971 20.5158C93.7211 20.3302 93.7873 20.112 93.7873 19.8887C93.7873 19.5924 93.6709 19.308 93.463 19.0969C93.2552 18.8857 92.9726 18.7647 92.6764 18.7601H92.6586ZM99.0663 22.1816C98.4853 22.1581 97.9057 22.2546 97.3637 22.4651C96.8217 22.6756 96.3289 22.9956 95.9161 23.4051C95.5033 23.8146 95.1793 24.3048 94.9644 24.8451C94.7495 25.3853 94.6483 25.9641 94.6671 26.5453C94.6446 27.1263 94.7425 27.7057 94.9549 28.247C95.1672 28.7883 95.4892 29.2798 95.9008 29.6905C96.3124 30.1012 96.8045 30.4223 97.3463 30.6335C97.888 30.8447 98.4676 30.9415 99.0485 30.9178C100.304 30.9282 101.518 30.4685 102.452 29.6291L101.404 28.5271C100.788 28.9793 100.052 29.2362 99.2885 29.2648C98.5814 29.2648 97.9032 28.9839 97.4032 28.4839C96.9032 27.9839 96.6223 27.3057 96.6223 26.5986C96.6223 25.8915 96.9032 25.2133 97.4032 24.7133C97.9032 24.2133 98.5814 23.9324 99.2885 23.9324C100.044 23.9406 100.776 24.2001 101.368 24.6701L102.452 23.497C101.534 22.6414 100.322 22.1707 99.0663 22.1816V22.1816ZM105.643 27.0341C105.677 27.0202 105.715 27.0202 105.749 27.0341V27.0341C105.793 27.0385 105.834 27.0572 105.865 27.0874L108.807 30.74H111.073L107.269 26.0742C107.243 26.0449 107.228 26.0069 107.228 25.9676C107.228 25.9283 107.243 25.8903 107.269 25.861L110.771 22.3594H108.531L105.51 25.3899C105.485 25.4067 105.455 25.4157 105.425 25.4157C105.395 25.4157 105.366 25.4067 105.341 25.3899C105.311 25.3775 105.286 25.3564 105.269 25.3294C105.251 25.3025 105.242 25.2709 105.243 25.2388V18.6978H103.403V30.6423H105.243V27.4073C105.244 27.3604 105.263 27.3157 105.296 27.2829L105.643 27.0341ZM114.077 30.9178C114.453 30.9518 114.833 30.909 115.192 30.7918C115.552 30.6747 115.884 30.4857 116.168 30.2364C116.452 29.987 116.683 29.6825 116.846 29.3413C117.009 29.0002 117.101 28.6294 117.116 28.2516C117.116 27.1141 116.405 26.3231 114.939 25.8432L113.935 25.5144C113.259 25.2922 112.939 24.9722 112.939 24.5368C112.939 24.1013 113.384 23.648 114.032 23.648C114.359 23.674 114.672 23.7899 114.938 23.9828C115.203 24.1757 115.409 24.4382 115.534 24.7412L117.01 23.9502C116.732 23.4033 116.304 22.9462 115.778 22.6317C115.251 22.3172 114.646 22.1581 114.032 22.1728C113.678 22.1398 113.32 22.1798 112.981 22.2902C112.643 22.4005 112.33 22.579 112.063 22.8145C111.796 23.05 111.58 23.3377 111.428 23.6599C111.276 23.982 111.191 24.3319 111.18 24.6878C111.18 25.8432 111.873 26.6253 113.286 27.0696L114.308 27.3984C115.037 27.6295 115.33 27.9139 115.33 28.3849C115.33 29.0959 114.672 29.3447 114.112 29.3447C113.73 29.3299 113.36 29.201 113.051 28.9746C112.743 28.7481 112.509 28.4344 112.379 28.0739L110.895 28.8559C111.149 29.4852 111.591 30.0209 112.16 30.3899C112.729 30.7589 113.399 30.9432 114.077 30.9178V30.9178ZM64.1217 30.8289C64.5886 30.8291 65.0548 30.7965 65.517 30.7312V29.1403C65.2222 29.1783 64.9255 29.199 64.6283 29.2026C63.8818 29.2026 63.313 29.0781 63.313 27.4251V24.0124C63.3129 23.9715 63.3286 23.9321 63.3567 23.9023C63.3848 23.8726 63.4232 23.8547 63.4641 23.8524H65.2415V22.3505H63.4641C63.4232 22.3482 63.3848 22.3304 63.3567 22.3006C63.3286 22.2709 63.3129 22.2315 63.313 22.1905V19.8532H61.4822V22.2616C61.4822 22.2826 61.4781 22.3034 61.47 22.3228C61.462 22.3423 61.4502 22.3599 61.4354 22.3747C61.4205 22.3896 61.4029 22.4014 61.3835 22.4094C61.3641 22.4175 61.3433 22.4216 61.3223 22.4216H60.0425V23.9235H61.3223C61.3433 23.9235 61.3641 23.9277 61.3835 23.9357C61.4029 23.9438 61.4205 23.9555 61.4354 23.9704C61.4502 23.9852 61.462 24.0029 61.47 24.0223C61.4781 24.0417 61.4822 24.0625 61.4822 24.0835V27.9583C61.4467 30.8289 63.3485 30.8289 64.1217 30.8289ZM35.4604 24.1102L29.2394 27.6029L22.6006 23.8702L22.2896 24.0391V26.7586L29.2394 30.6689L35.4604 27.1763V28.616L29.2394 32.1087L22.6006 28.376L22.2896 28.5538V29.0159L29.2394 32.9263L36.1892 29.0159V26.2964L35.8781 26.1187L29.2394 29.8513L23.0183 26.3586V24.9278L29.2394 28.4116L36.1892 24.5012V21.835L35.8426 21.6395L29.2394 25.3544L23.356 22.0394L29.2394 18.7334L34.0829 21.4529L34.5184 21.2129V20.8841L29.2394 17.9158L22.2896 21.8262V22.2527L29.2394 26.1631L35.4604 22.6704V24.1102Z" fill="white"></path></g><defs><clipPath id="clip0_852_3318"><rect width="138" height="191.747" fill="white" transform="translate(0.5)"></rect></clipPath><clipPath id="clip1_852_3318"><rect width="64.7646" height="64.3159" fill="white" transform="translate(69.2803 117.216)"></rect></clipPath><clipPath id="clip2_852_3318"><rect width="51.5857" height="26.8363" fill="white" transform="translate(43.1587 49.9333)"></rect></clipPath><clipPath id="clip3_852_3318"><rect width="138" height="190.295" fill="white" transform="translate(0.499756 1.45264)"></rect></clipPath></defs></svg> 